<?xml version="1.0" encoding="UTF-8" standalone="no"?>
<!-- Created with Inkscape (http://www.inkscape.org/) -->

<svg
   xmlns:dc="http://purl.org/dc/elements/1.1/"
   xmlns:cc="http://creativecommons.org/ns#"
   xmlns:rdf="http://www.w3.org/1999/02/22-rdf-syntax-ns#"
   xmlns:svg="http://www.w3.org/2000/svg"
   xmlns="http://www.w3.org/2000/svg"
   xmlns:sodipodi="http://sodipodi.sourceforge.net/DTD/sodipodi-0.dtd"
   xmlns:inkscape="http://www.inkscape.org/namespaces/inkscape"
   id="svg2"
   version="1.1"
   inkscape:version="0.47 r22583"
   width="695"
   height="276.64499"
   xml:space="preserve"
   sodipodi:docname="crypto1_2.svg"><metadata
     id="metadata8"><rdf:RDF><cc:Work
         rdf:about=""><dc:format>image/svg+xml</dc:format><dc:type
           rdf:resource="http://purl.org/dc/dcmitype/StillImage" /><dc:title></dc:title></cc:Work></rdf:RDF></metadata><defs
     id="defs6"><inkscape:perspective
       sodipodi:type="inkscape:persp3d"
       inkscape:vp_x="0 : 0.5 : 1"
       inkscape:vp_y="0 : 1000 : 0"
       inkscape:vp_z="1 : 0.5 : 1"
       inkscape:persp3d-origin="0.5 : 0.33333333 : 1"
       id="perspective10" /><inkscape:perspective
       id="perspective4072"
       inkscape:persp3d-origin="0.5 : 0.33333333 : 1"
       inkscape:vp_z="1 : 0.5 : 1"
       inkscape:vp_y="0 : 1000 : 0"
       inkscape:vp_x="0 : 0.5 : 1"
       sodipodi:type="inkscape:persp3d" /><inkscape:perspective
       id="perspective4103"
       inkscape:persp3d-origin="0.5 : 0.33333333 : 1"
       inkscape:vp_z="1 : 0.5 : 1"
       inkscape:vp_y="0 : 1000 : 0"
       inkscape:vp_x="0 : 0.5 : 1"
       sodipodi:type="inkscape:persp3d" /><inkscape:perspective
       id="perspective4130"
       inkscape:persp3d-origin="0.5 : 0.33333333 : 1"
       inkscape:vp_z="1 : 0.5 : 1"
       inkscape:vp_y="0 : 1000 : 0"
       inkscape:vp_x="0 : 0.5 : 1"
       sodipodi:type="inkscape:persp3d" /><inkscape:perspective
       id="perspective4157"
       inkscape:persp3d-origin="0.5 : 0.33333333 : 1"
       inkscape:vp_z="1 : 0.5 : 1"
       inkscape:vp_y="0 : 1000 : 0"
       inkscape:vp_x="0 : 0.5 : 1"
       sodipodi:type="inkscape:persp3d" /></defs><sodipodi:namedview
     pagecolor="#ffffff"
     bordercolor="#666666"
     borderopacity="1"
     objecttolerance="10"
     gridtolerance="10"
     guidetolerance="10"
     inkscape:pageopacity="0"
     inkscape:pageshadow="2"
     inkscape:window-width="1920"
     inkscape:window-height="1132"
     id="namedview4"
     showgrid="false"
     inkscape:zoom="3.2814997"
     inkscape:cx="366.85052"
     inkscape:cy="111.07687"
     inkscape:window-x="-4"
     inkscape:window-y="-3"
     inkscape:window-maximized="1"
     inkscape:current-layer="g12" /><g
     id="g12"
     inkscape:groupmode="layer"
     inkscape:label="crypto1_2"
     transform="matrix(1.25,0,0,-1.25,0,383.2275)"><path
       id="path16"
       style="fill:#ffffff;fill-opacity:0;fill-rule:evenodd;stroke:none"
       d="m -48,-3.293 655,0 0,381 -655,0 0,-381 z" /><g
       transform="matrix(1,0,0,-1,0,306.58249)"
       id="g18"><path
         id="path20"
         style="fill:none;stroke:#000000;stroke-width:2;stroke-linecap:butt;stroke-linejoin:miter;stroke-miterlimit:8;stroke-opacity:1;stroke-dasharray:none"
         d="m 1,28.75 18,0 0,18 -18,0 0,-18 z" /></g><path
       id="path22"
       style="fill:#000000;fill-opacity:1;fill-rule:nonzero;stroke:none"
       d="m 10.516,271.555 c -0.661,0 -1.157,-0.324 -1.489,-0.976 -0.332,-0.649 -0.496,-1.625 -0.496,-2.926 0,-1.301 0.164,-2.278 0.496,-2.926 0.332,-0.648 0.828,-0.973 1.489,-0.973 0.668,0 1.164,0.325 1.492,0.973 0.336,0.648 0.504,1.625 0.504,2.926 0,1.301 -0.168,2.277 -0.504,2.926 -0.328,0.652 -0.824,0.976 -1.492,0.976 m 0,1.016 c 1.062,0 1.875,-0.422 2.433,-1.262 0.563,-0.84 0.844,-2.059 0.844,-3.656 0,-1.598 -0.281,-2.817 -0.844,-3.656 -0.558,-0.84 -1.371,-1.258 -2.433,-1.258 -1.059,0 -1.871,0.418 -2.438,1.258 -0.558,0.839 -0.836,2.058 -0.836,3.656 0,1.597 0.278,2.816 0.836,3.656 0.567,0.84 1.379,1.262 2.438,1.262" /><g
       transform="matrix(1,0,0,-1,0,306.58249)"
       id="g24"><path
         id="path26"
         style="fill:none;stroke:#000000;stroke-width:2;stroke-linecap:butt;stroke-linejoin:miter;stroke-miterlimit:8;stroke-opacity:1;stroke-dasharray:none"
         d="m 73,28.75 18,0 0,18 -18,0 0,-18 z" /></g><path
       id="path28"
       style="fill:#000000;fill-opacity:1;fill-rule:nonzero;stroke:none"
       d="m 76.383,264 2.094,0 0,7.231 -2.278,-0.457 0,1.168 2.266,0.457 1.281,0 0,-8.399 2.094,0 0,-1.078 -5.457,0 0,1.078" /><path
       id="path30"
       style="fill:#000000;fill-opacity:1;fill-rule:nonzero;stroke:none"
       d="m 83.609,264 2.094,0 0,7.231 -2.277,-0.457 0,1.168 2.265,0.457 1.282,0 0,-8.399 2.097,0 0,-1.078 -5.461,0 0,1.078" /><g
       transform="matrix(1,0,0,-1,0,306.58249)"
       id="g32"><path
         id="path34"
         style="fill:none;stroke:#000000;stroke-width:2;stroke-linecap:butt;stroke-linejoin:miter;stroke-miterlimit:8;stroke-opacity:1;stroke-dasharray:none"
         d="m 91,28.75 18,0 0,18 -18,0 0,-18 z" /></g><path
       id="path36"
       style="fill:#000000;fill-opacity:1;fill-rule:nonzero;stroke:none"
       d="m 94.383,264 2.094,0 0,7.231 -2.278,-0.457 0,1.168 2.266,0.457 1.281,0 0,-8.399 2.094,0 0,-1.078 -5.457,0 0,1.078" /><path
       id="path38"
       style="fill:#000000;fill-opacity:1;fill-rule:nonzero;stroke:none"
       d="m 102.492,264 4.477,0 0,-1.078 -6.02,0 0,1.078 c 0.489,0.504 1.149,1.18 1.989,2.028 0.839,0.847 1.371,1.398 1.585,1.644 0.411,0.461 0.696,0.848 0.856,1.168 0.168,0.321 0.25,0.637 0.25,0.946 0,0.504 -0.18,0.914 -0.535,1.23 -0.352,0.316 -0.809,0.477 -1.375,0.477 -0.403,0 -0.828,-0.071 -1.278,-0.211 -0.445,-0.141 -0.921,-0.352 -1.429,-0.633 l 0,1.293 c 0.519,0.207 1,0.363 1.449,0.469 0.449,0.105 0.859,0.16 1.23,0.16 0.985,0 1.766,-0.246 2.348,-0.735 0.586,-0.492 0.879,-1.148 0.879,-1.968 0,-0.391 -0.074,-0.762 -0.223,-1.114 -0.144,-0.343 -0.41,-0.757 -0.793,-1.23 -0.105,-0.121 -0.441,-0.477 -1.011,-1.067 -0.567,-0.582 -1.368,-1.402 -2.399,-2.457" /><g
       transform="matrix(1,0,0,-1,0,306.58249)"
       id="g40"><path
         id="path42"
         style="fill:none;stroke:#000000;stroke-width:2;stroke-linecap:butt;stroke-linejoin:miter;stroke-miterlimit:8;stroke-opacity:1;stroke-dasharray:none"
         d="m 145,28.75 18,0 0,18 -18,0 0,-18 z" /></g><path
       id="path44"
       style="fill:#000000;fill-opacity:1;fill-rule:nonzero;stroke:none"
       d="m 148.383,264 2.094,0 0,7.231 -2.278,-0.457 0,1.168 2.266,0.457 1.281,0 0,-8.399 2.094,0 0,-1.078 -5.457,0 0,1.078" /><path
       id="path46"
       style="fill:#000000;fill-opacity:1;fill-rule:nonzero;stroke:none"
       d="m 155.402,272.399 5.032,0 0,-1.078 -3.86,0 0,-2.324 c 0.188,0.062 0.375,0.109 0.559,0.14 0.187,0.035 0.375,0.051 0.558,0.051 1.059,0 1.899,-0.289 2.516,-0.871 0.617,-0.578 0.926,-1.363 0.926,-2.356 0,-1.019 -0.317,-1.812 -0.953,-2.379 -0.633,-0.562 -1.528,-0.843 -2.684,-0.843 -0.398,0 -0.805,0.035 -1.219,0.101 -0.41,0.067 -0.836,0.168 -1.277,0.305 l 0,1.289 c 0.383,-0.207 0.773,-0.363 1.18,-0.465 0.406,-0.101 0.836,-0.152 1.289,-0.152 0.734,0 1.312,0.191 1.742,0.578 0.426,0.387 0.641,0.906 0.641,1.566 0,0.661 -0.215,1.184 -0.641,1.571 -0.43,0.383 -1.008,0.578 -1.742,0.578 -0.34,0 -0.684,-0.039 -1.028,-0.117 -0.339,-0.075 -0.683,-0.192 -1.039,-0.356 l 0,4.762" /><g
       transform="matrix(1,0,0,-1,0,306.58249)"
       id="g48"><path
         id="path50"
         style="fill:none;stroke:#000000;stroke-width:2;stroke-linecap:butt;stroke-linejoin:miter;stroke-miterlimit:8;stroke-opacity:1;stroke-dasharray:none"
         d="m 163,28.75 18,0 0,18 -18,0 0,-18 z" /></g><path
       id="path52"
       style="fill:#000000;fill-opacity:1;fill-rule:nonzero;stroke:none"
       d="m 166.383,264 2.094,0 0,7.231 -2.278,-0.457 0,1.168 2.266,0.457 1.281,0 0,-8.399 2.094,0 0,-1.078 -5.457,0 0,1.078" /><path
       id="path54"
       style="fill:#000000;fill-opacity:1;fill-rule:nonzero;stroke:none"
       d="m 173.062,272.399 6.094,0 0,-0.547 -3.437,-8.93 -1.34,0 3.238,8.399 -4.555,0 0,1.078" /><g
       transform="matrix(1,0,0,-1,0,306.58249)"
       id="g56"><path
         id="path58"
         style="fill:none;stroke:#000000;stroke-width:2;stroke-linecap:butt;stroke-linejoin:miter;stroke-miterlimit:8;stroke-opacity:1;stroke-dasharray:none"
         d="m 181,28.75 18,0 0,18 -18,0 0,-18 z" /></g><path
       id="path60"
       style="fill:#000000;fill-opacity:1;fill-rule:nonzero;stroke:none"
       d="m 184.383,264 2.094,0 0,7.231 -2.278,-0.457 0,1.168 2.266,0.457 1.281,0 0,-8.399 2.094,0 0,-1.078 -5.457,0 0,1.078" /><path
       id="path62"
       style="fill:#000000;fill-opacity:1;fill-rule:nonzero;stroke:none"
       d="m 194.129,267.422 c -0.609,0 -1.09,-0.164 -1.441,-0.488 -0.344,-0.324 -0.52,-0.773 -0.52,-1.344 0,-0.574 0.176,-1.023 0.52,-1.347 0.351,-0.325 0.832,-0.489 1.441,-0.489 0.609,0 1.09,0.164 1.441,0.489 0.352,0.332 0.528,0.777 0.528,1.347 0,0.571 -0.176,1.02 -0.528,1.344 -0.347,0.324 -0.828,0.488 -1.441,0.488 m -1.281,0.547 c -0.551,0.137 -0.981,0.391 -1.289,0.77 -0.305,0.375 -0.457,0.832 -0.457,1.375 0,0.758 0.269,1.355 0.808,1.797 0.539,0.441 1.281,0.66 2.219,0.66 0.945,0 1.687,-0.219 2.223,-0.66 0.539,-0.442 0.804,-1.039 0.804,-1.797 0,-0.543 -0.152,-1 -0.461,-1.375 -0.304,-0.379 -0.73,-0.633 -1.277,-0.77 0.617,-0.144 1.098,-0.426 1.441,-0.844 0.348,-0.418 0.52,-0.933 0.52,-1.535 0,-0.922 -0.281,-1.625 -0.844,-2.117 -0.558,-0.488 -1.359,-0.734 -2.406,-0.734 -1.043,0 -1.848,0.246 -2.41,0.734 -0.559,0.492 -0.84,1.195 -0.84,2.117 0,0.602 0.176,1.117 0.523,1.535 0.344,0.418 0.828,0.7 1.446,0.844 m -0.469,2.024 c 0,-0.489 0.152,-0.871 0.457,-1.149 0.309,-0.273 0.738,-0.41 1.293,-0.41 0.551,0 0.98,0.137 1.289,0.41 0.312,0.278 0.469,0.66 0.469,1.149 0,0.492 -0.157,0.875 -0.469,1.148 -0.309,0.277 -0.738,0.414 -1.289,0.414 -0.555,0 -0.984,-0.137 -1.293,-0.414 -0.305,-0.273 -0.457,-0.656 -0.457,-1.148" /><g
       transform="matrix(1,0,0,-1,0,306.58249)"
       id="g64"><path
         id="path66"
         style="fill:none;stroke:#000000;stroke-width:2;stroke-linecap:butt;stroke-linejoin:miter;stroke-miterlimit:8;stroke-opacity:1;stroke-dasharray:none"
         d="m 253,28.75 18,0 0,18 -18,0 0,-18 z" /></g><path
       id="path68"
       style="fill:#000000;fill-opacity:1;fill-rule:nonzero;stroke:none"
       d="m 257.266,264 4.472,0 0,-1.078 -6.015,0 0,1.078 c 0.484,0.504 1.148,1.18 1.984,2.028 0.844,0.847 1.371,1.398 1.59,1.644 0.41,0.461 0.695,0.848 0.855,1.168 0.164,0.321 0.246,0.637 0.246,0.946 0,0.504 -0.175,0.914 -0.531,1.23 -0.351,0.316 -0.808,0.477 -1.379,0.477 -0.402,0 -0.824,-0.071 -1.273,-0.211 -0.445,-0.141 -0.922,-0.352 -1.43,-0.633 l 0,1.293 c 0.516,0.207 1,0.363 1.449,0.469 0.446,0.105 0.86,0.16 1.231,0.16 0.98,0 1.765,-0.246 2.347,-0.735 0.586,-0.492 0.876,-1.148 0.876,-1.968 0,-0.391 -0.075,-0.762 -0.223,-1.114 -0.141,-0.343 -0.406,-0.757 -0.793,-1.23 -0.106,-0.121 -0.442,-0.477 -1.008,-1.067 -0.566,-0.582 -1.367,-1.402 -2.398,-2.457" /><path
       id="path70"
       style="fill:#000000;fill-opacity:1;fill-rule:nonzero;stroke:none"
       d="m 266.91,271.282 -3.238,-5.059 3.238,0 0,5.059 m -0.336,1.117 1.614,0 0,-6.176 1.351,0 0,-1.066 -1.351,0 0,-2.235 -1.278,0 0,2.235 -4.277,0 0,1.238 3.941,6.004" /><g
       transform="matrix(1,0,0,-1,0,306.58249)"
       id="g72"><path
         id="path74"
         style="fill:none;stroke:#000000;stroke-width:2;stroke-linecap:butt;stroke-linejoin:miter;stroke-miterlimit:8;stroke-opacity:1;stroke-dasharray:none"
         d="m 289,28.75 18,0 0,18 -18,0 0,-18 z" /></g><path
       id="path76"
       style="fill:#000000;fill-opacity:1;fill-rule:nonzero;stroke:none"
       d="m 293.266,264 4.472,0 0,-1.078 -6.015,0 0,1.078 c 0.484,0.504 1.148,1.18 1.984,2.028 0.844,0.847 1.371,1.398 1.59,1.644 0.41,0.461 0.695,0.848 0.855,1.168 0.164,0.321 0.246,0.637 0.246,0.946 0,0.504 -0.175,0.914 -0.531,1.23 -0.351,0.316 -0.808,0.477 -1.379,0.477 -0.402,0 -0.824,-0.071 -1.273,-0.211 -0.445,-0.141 -0.922,-0.352 -1.43,-0.633 l 0,1.293 c 0.516,0.207 1,0.363 1.449,0.469 0.446,0.105 0.86,0.16 1.231,0.16 0.98,0 1.765,-0.246 2.347,-0.735 0.586,-0.492 0.876,-1.148 0.876,-1.968 0,-0.391 -0.075,-0.762 -0.223,-1.114 -0.141,-0.343 -0.406,-0.757 -0.793,-1.23 -0.106,-0.121 -0.442,-0.477 -1.008,-1.067 -0.566,-0.582 -1.367,-1.402 -2.398,-2.457" /><path
       id="path78"
       style="fill:#000000;fill-opacity:1;fill-rule:nonzero;stroke:none"
       d="m 299.062,272.399 6.094,0 0,-0.547 -3.437,-8.93 -1.34,0 3.238,8.399 -4.555,0 0,1.078" /><g
       transform="matrix(1,0,0,-1,0,306.58249)"
       id="g80"><path
         id="path82"
         style="fill:none;stroke:#000000;stroke-width:2;stroke-linecap:butt;stroke-linejoin:miter;stroke-miterlimit:8;stroke-opacity:1;stroke-dasharray:none"
         d="m 307,28.75 18,0 0,18 -18,0 0,-18 z" /></g><path
       id="path84"
       style="fill:#000000;fill-opacity:1;fill-rule:nonzero;stroke:none"
       d="m 311.266,264 4.472,0 0,-1.078 -6.015,0 0,1.078 c 0.484,0.504 1.148,1.18 1.984,2.028 0.844,0.847 1.371,1.398 1.59,1.644 0.41,0.461 0.695,0.848 0.855,1.168 0.164,0.321 0.246,0.637 0.246,0.946 0,0.504 -0.175,0.914 -0.531,1.23 -0.351,0.316 -0.808,0.477 -1.379,0.477 -0.402,0 -0.824,-0.071 -1.273,-0.211 -0.445,-0.141 -0.922,-0.352 -1.43,-0.633 l 0,1.293 c 0.516,0.207 1,0.363 1.449,0.469 0.446,0.105 0.86,0.16 1.231,0.16 0.98,0 1.765,-0.246 2.347,-0.735 0.586,-0.492 0.876,-1.148 0.876,-1.968 0,-0.391 -0.075,-0.762 -0.223,-1.114 -0.141,-0.343 -0.406,-0.757 -0.793,-1.23 -0.106,-0.121 -0.442,-0.477 -1.008,-1.067 -0.566,-0.582 -1.367,-1.402 -2.398,-2.457" /><path
       id="path86"
       style="fill:#000000;fill-opacity:1;fill-rule:nonzero;stroke:none"
       d="m 317.426,263.118 0,1.168 c 0.32,-0.153 0.648,-0.266 0.976,-0.348 0.332,-0.082 0.657,-0.121 0.973,-0.121 0.848,0 1.492,0.285 1.937,0.851 0.446,0.571 0.704,1.438 0.766,2.598 -0.246,-0.367 -0.555,-0.644 -0.933,-0.84 -0.375,-0.195 -0.793,-0.293 -1.25,-0.293 -0.946,0 -1.7,0.285 -2.254,0.86 -0.547,0.574 -0.825,1.359 -0.825,2.355 0,0.973 0.289,1.754 0.864,2.34 0.574,0.59 1.343,0.883 2.297,0.883 1.097,0 1.933,-0.422 2.507,-1.262 0.582,-0.84 0.871,-2.059 0.871,-3.656 0,-1.496 -0.355,-2.688 -1.066,-3.582 -0.707,-0.887 -1.66,-1.332 -2.855,-1.332 -0.325,0 -0.649,0.031 -0.981,0.093 -0.328,0.067 -0.672,0.161 -1.027,0.286 m 2.551,4.019 c 0.578,0 1.031,0.195 1.367,0.59 0.336,0.395 0.508,0.934 0.508,1.621 0,0.68 -0.172,1.219 -0.508,1.609 -0.336,0.399 -0.789,0.598 -1.367,0.598 -0.575,0 -1.032,-0.199 -1.372,-0.598 -0.332,-0.39 -0.5,-0.929 -0.5,-1.609 0,-0.687 0.168,-1.226 0.5,-1.621 0.34,-0.395 0.797,-0.59 1.372,-0.59" /><g
       transform="matrix(1,0,0,-1,0,306.58249)"
       id="g88"><path
         id="path90"
         style="fill:none;stroke:#000000;stroke-width:2;stroke-linecap:butt;stroke-linejoin:miter;stroke-miterlimit:8;stroke-opacity:1;stroke-dasharray:none"
         d="m 343,28.75 18,0 0,18 -18,0 0,-18 z" /></g><path
       id="path92"
       style="fill:#000000;fill-opacity:1;fill-rule:nonzero;stroke:none"
       d="m 351.328,264.536 1.344,0 0,-1.614 -1.344,0 0,1.614 m 4.32,0 1.352,0 0,-1.614 -1.352,0 0,1.614 m -8.652,0 1.356,0 0,-1.614 -1.356,0 0,1.614" /><g
       transform="matrix(1,0,0,-1,0,306.58249)"
       id="g94"><path
         id="path96"
         style="fill:none;stroke:#000000;stroke-width:2;stroke-linecap:butt;stroke-linejoin:miter;stroke-miterlimit:8;stroke-opacity:1;stroke-dasharray:none"
         d="m 397,28.75 18,0 0,18 -18,0 0,-18 z" /></g><path
       id="path98"
       style="fill:#000000;fill-opacity:1;fill-rule:nonzero;stroke:none"
       d="m 404.043,268.032 c 0.617,-0.129 1.094,-0.403 1.437,-0.817 0.348,-0.418 0.52,-0.929 0.52,-1.539 0,-0.933 -0.32,-1.656 -0.965,-2.168 -0.644,-0.515 -1.558,-0.769 -2.742,-0.769 -0.398,0 -0.809,0.039 -1.231,0.121 -0.421,0.074 -0.855,0.191 -1.3,0.347 l 0,1.239 c 0.355,-0.207 0.742,-0.364 1.168,-0.469 0.422,-0.105 0.863,-0.16 1.324,-0.16 0.805,0 1.418,0.16 1.836,0.476 0.422,0.317 0.633,0.778 0.633,1.383 0,0.559 -0.196,0.996 -0.59,1.309 -0.387,0.316 -0.934,0.476 -1.629,0.476 l -1.106,0 0,1.055 1.157,0 c 0.629,0 1.113,0.125 1.445,0.375 0.336,0.254 0.5,0.617 0.5,1.09 0,0.488 -0.172,0.859 -0.52,1.117 -0.343,0.262 -0.835,0.395 -1.476,0.395 -0.352,0 -0.731,-0.039 -1.133,-0.114 -0.402,-0.078 -0.844,-0.195 -1.324,-0.355 l 0,1.141 c 0.484,0.136 0.941,0.238 1.363,0.304 0.43,0.067 0.828,0.102 1.207,0.102 0.973,0 1.742,-0.223 2.309,-0.668 0.57,-0.438 0.851,-1.035 0.851,-1.789 0,-0.524 -0.148,-0.969 -0.449,-1.332 -0.301,-0.36 -0.73,-0.61 -1.285,-0.75" /><path
       id="path100"
       style="fill:#000000;fill-opacity:1;fill-rule:nonzero;stroke:none"
       d="m 407.062,272.399 6.094,0 0,-0.547 -3.437,-8.93 -1.34,0 3.238,8.399 -4.555,0 0,1.078" /><g
       transform="matrix(1,0,0,-1,0,306.58249)"
       id="g102"><path
         id="path104"
         style="fill:none;stroke:#000000;stroke-width:2;stroke-linecap:butt;stroke-linejoin:miter;stroke-miterlimit:8;stroke-opacity:1;stroke-dasharray:none"
         d="m 451,28.75 18,0 0,18 -18,0 0,-18 z" /></g><path
       id="path106"
       style="fill:#000000;fill-opacity:1;fill-rule:nonzero;stroke:none"
       d="m 457.684,271.282 -3.239,-5.059 3.239,0 0,5.059 m -0.336,1.117 1.609,0 0,-6.176 1.355,0 0,-1.066 -1.355,0 0,-2.235 -1.273,0 0,2.235 -4.278,0 0,1.238 3.942,6.004" /><path
       id="path108"
       style="fill:#000000;fill-opacity:1;fill-rule:nonzero;stroke:none"
       d="m 462.492,264 4.477,0 0,-1.078 -6.02,0 0,1.078 c 0.489,0.504 1.149,1.18 1.989,2.028 0.839,0.847 1.371,1.398 1.585,1.644 0.411,0.461 0.696,0.848 0.856,1.168 0.168,0.321 0.25,0.637 0.25,0.946 0,0.504 -0.18,0.914 -0.535,1.23 -0.352,0.316 -0.809,0.477 -1.375,0.477 -0.403,0 -0.828,-0.071 -1.278,-0.211 -0.445,-0.141 -0.921,-0.352 -1.429,-0.633 l 0,1.293 c 0.519,0.207 1,0.363 1.449,0.469 0.449,0.105 0.859,0.16 1.23,0.16 0.985,0 1.766,-0.246 2.348,-0.735 0.586,-0.492 0.879,-1.148 0.879,-1.968 0,-0.391 -0.074,-0.762 -0.223,-1.114 -0.144,-0.343 -0.41,-0.757 -0.793,-1.23 -0.105,-0.121 -0.441,-0.477 -1.011,-1.067 -0.567,-0.582 -1.368,-1.402 -2.399,-2.457" /><g
       transform="matrix(1,0,0,-1,0,306.58249)"
       id="g110"><path
         id="path112"
         style="fill:none;stroke:#000000;stroke-width:2;stroke-linecap:butt;stroke-linejoin:miter;stroke-miterlimit:8;stroke-opacity:1;stroke-dasharray:none"
         d="m 469,28.75 18,0 0,18 -18,0 0,-18 z" /></g><path
       id="path114"
       style="fill:#000000;fill-opacity:1;fill-rule:nonzero;stroke:none"
       d="m 475.684,271.282 -3.239,-5.059 3.239,0 0,5.059 m -0.336,1.117 1.609,0 0,-6.176 1.355,0 0,-1.066 -1.355,0 0,-2.235 -1.273,0 0,2.235 -4.278,0 0,1.238 3.942,6.004" /><path
       id="path116"
       style="fill:#000000;fill-opacity:1;fill-rule:nonzero;stroke:none"
       d="m 483.273,268.032 c 0.614,-0.129 1.09,-0.403 1.434,-0.817 0.348,-0.418 0.52,-0.929 0.52,-1.539 0,-0.933 -0.321,-1.656 -0.965,-2.168 -0.641,-0.515 -1.555,-0.769 -2.742,-0.769 -0.395,0 -0.809,0.039 -1.231,0.121 -0.418,0.074 -0.851,0.191 -1.301,0.347 l 0,1.239 c 0.356,-0.207 0.746,-0.364 1.168,-0.469 0.422,-0.105 0.867,-0.16 1.328,-0.16 0.801,0 1.414,0.16 1.832,0.476 0.426,0.317 0.637,0.778 0.637,1.383 0,0.559 -0.199,0.996 -0.59,1.309 -0.39,0.316 -0.933,0.476 -1.633,0.476 l -1.105,0 0,1.055 1.156,0 c 0.629,0 1.114,0.125 1.446,0.375 0.335,0.254 0.503,0.617 0.503,1.09 0,0.488 -0.175,0.859 -0.519,1.117 -0.344,0.262 -0.836,0.395 -1.481,0.395 -0.351,0 -0.726,-0.039 -1.128,-0.114 -0.403,-0.078 -0.844,-0.195 -1.329,-0.355 l 0,1.141 c 0.489,0.136 0.942,0.238 1.364,0.304 0.429,0.067 0.832,0.102 1.207,0.102 0.972,0 1.746,-0.223 2.312,-0.668 0.567,-0.438 0.848,-1.035 0.848,-1.789 0,-0.524 -0.149,-0.969 -0.449,-1.332 -0.301,-0.36 -0.727,-0.61 -1.282,-0.75" /><g
       transform="matrix(1,0,0,-1,0,306.58249)"
       id="g118"><path
         id="path120"
         style="fill:none;stroke:#000000;stroke-width:2;stroke-linecap:butt;stroke-linejoin:miter;stroke-miterlimit:8;stroke-opacity:1;stroke-dasharray:none"
         d="m 487,28.75 18,0 0,18 -18,0 0,-18 z" /></g><path
       id="path122"
       style="fill:#000000;fill-opacity:1;fill-rule:nonzero;stroke:none"
       d="m 493.684,271.282 -3.239,-5.059 3.239,0 0,5.059 m -0.336,1.117 1.609,0 0,-6.176 1.355,0 0,-1.066 -1.355,0 0,-2.235 -1.273,0 0,2.235 -4.278,0 0,1.238 3.942,6.004" /><path
       id="path124"
       style="fill:#000000;fill-opacity:1;fill-rule:nonzero;stroke:none"
       d="m 497.402,272.399 5.032,0 0,-1.078 -3.86,0 0,-2.324 c 0.188,0.062 0.375,0.109 0.559,0.14 0.187,0.035 0.375,0.051 0.558,0.051 1.059,0 1.899,-0.289 2.516,-0.871 0.617,-0.578 0.926,-1.363 0.926,-2.356 0,-1.019 -0.317,-1.812 -0.953,-2.379 -0.633,-0.562 -1.528,-0.843 -2.684,-0.843 -0.398,0 -0.805,0.035 -1.219,0.101 -0.41,0.067 -0.836,0.168 -1.277,0.305 l 0,1.289 c 0.383,-0.207 0.773,-0.363 1.18,-0.465 0.406,-0.101 0.836,-0.152 1.289,-0.152 0.734,0 1.312,0.191 1.742,0.578 0.426,0.387 0.641,0.906 0.641,1.566 0,0.661 -0.215,1.184 -0.641,1.571 -0.43,0.383 -1.008,0.578 -1.742,0.578 -0.34,0 -0.684,-0.039 -1.028,-0.117 -0.339,-0.075 -0.683,-0.192 -1.039,-0.356 l 0,4.762" /><g
       transform="matrix(1,0,0,-1,0,306.58249)"
       id="g126"><path
         id="path128"
         style="fill:none;stroke:#000000;stroke-width:2;stroke-linecap:butt;stroke-linejoin:round;stroke-miterlimit:10;stroke-opacity:1;stroke-dasharray:none"
         d="m 536,37.781 c 0,-4.972 4.031,-9 9,-9 l 0,0 c 4.969,0 9,4.028 9,9 0,0 0,0 0,0 l 0,0 c 0,4.969 -4.031,9 -9,9 0,0 0,0 0,0 l 0,0 c -4.969,0 -9,-4.031 -9,-9 0,0 0,0 0,0 z" /></g><g
       transform="matrix(1,0,0,-1,0,306.58249)"
       id="g130"><path
         id="path132"
         style="fill:none;stroke:#000000;stroke-width:2;stroke-linecap:butt;stroke-linejoin:round;stroke-miterlimit:10;stroke-opacity:1;stroke-dasharray:none"
         d="m 535,37.781 20,0" /></g><g
       transform="matrix(1,0,0,-1,0,306.58249)"
       id="g134"><path
         id="path136"
         style="fill:none;stroke:#000000;stroke-width:2;stroke-linecap:butt;stroke-linejoin:round;stroke-miterlimit:10;stroke-opacity:1;stroke-dasharray:none"
         d="m 545,27.781 0,20" /></g><g
       transform="matrix(1,0,0,-1,0,306.58249)"
       id="g138"><path
         id="path140"
         style="fill:none;stroke:#000000;stroke-width:2;stroke-linecap:butt;stroke-linejoin:miter;stroke-miterlimit:8;stroke-opacity:1;stroke-dasharray:none"
         d="m 10,28.75 0,-18 535,0 0,15" /></g><path
       id="path142"
       style="fill:#000000;fill-opacity:1;fill-rule:evenodd;stroke:none"
       d="m 547,283.832 -2,-6 -2,6 4,0 z" /><g
       transform="matrix(1,0,0,-1,0,306.58249)"
       id="g144"><path
         id="path146"
         style="fill:none;stroke:#000000;stroke-width:2;stroke-linecap:butt;stroke-linejoin:miter;stroke-miterlimit:8;stroke-opacity:1;stroke-dasharray:none"
         d="m 82,28.75 0,-18 463,0 0,15" /></g><path
       id="path148"
       style="fill:#000000;fill-opacity:1;fill-rule:evenodd;stroke:none"
       d="m 547,283.832 -2,-6 -2,6 4,0 z" /><g
       transform="matrix(1,0,0,-1,0,306.58249)"
       id="g150"><path
         id="path152"
         style="fill:none;stroke:#000000;stroke-width:2;stroke-linecap:butt;stroke-linejoin:miter;stroke-miterlimit:8;stroke-opacity:1;stroke-dasharray:none"
         d="m 100,28.75 0,-18 445,0 0,15" /></g><path
       id="path154"
       style="fill:#000000;fill-opacity:1;fill-rule:evenodd;stroke:none"
       d="m 547,283.832 -2,-6 -2,6 4,0 z" /><g
       transform="matrix(1,0,0,-1,0,306.58249)"
       id="g156"><path
         id="path158"
         style="fill:none;stroke:#000000;stroke-width:2;stroke-linecap:butt;stroke-linejoin:miter;stroke-miterlimit:8;stroke-opacity:1;stroke-dasharray:none"
         d="m 136,28.75 0,-18 409,0 0,15" /></g><path
       id="path160"
       style="fill:#000000;fill-opacity:1;fill-rule:evenodd;stroke:none"
       d="m 547,283.832 -2,-6 -2,6 4,0 z" /><g
       transform="matrix(1,0,0,-1,0,306.58249)"
       id="g162"><path
         id="path164"
         style="fill:none;stroke:#000000;stroke-width:2;stroke-linecap:butt;stroke-linejoin:miter;stroke-miterlimit:8;stroke-opacity:1;stroke-dasharray:none"
         d="m 536,37.75 -6.5,0 -3.5,0" /></g><path
       id="path166"
       style="fill:#000000;fill-opacity:1;fill-rule:evenodd;stroke:none"
       d="m 529,266.832 -6,2 6,2 0,-4 z" /><g
       transform="matrix(1,0,0,-1,0,306.58249)"
       id="g168"><path
         id="path170"
         style="fill:none;stroke:#000000;stroke-width:2;stroke-linecap:butt;stroke-linejoin:miter;stroke-miterlimit:8;stroke-opacity:1;stroke-dasharray:none"
         d="m 172,28.75 0,-18 373,0 0,15" /></g><path
       id="path172"
       style="fill:#000000;fill-opacity:1;fill-rule:evenodd;stroke:none"
       d="m 547,283.832 -2,-6 -2,6 4,0 z" /><g
       transform="matrix(1,0,0,-1,0,306.58249)"
       id="g174"><path
         id="path176"
         style="fill:none;stroke:#000000;stroke-width:2;stroke-linecap:butt;stroke-linejoin:miter;stroke-miterlimit:8;stroke-opacity:1;stroke-dasharray:none"
         d="m 208,28.75 0,-18 337,0 0,15" /></g><path
       id="path178"
       style="fill:#000000;fill-opacity:1;fill-rule:evenodd;stroke:none"
       d="m 547,283.832 -2,-6 -2,6 4,0 z" /><g
       transform="matrix(1,0,0,-1,0,306.58249)"
       id="g180"><path
         id="path182"
         style="fill:none;stroke:#000000;stroke-width:2;stroke-linecap:butt;stroke-linejoin:miter;stroke-miterlimit:8;stroke-opacity:1;stroke-dasharray:none"
         d="m 262,28.75 0,-18 283,0 0,15" /></g><path
       id="path184"
       style="fill:#000000;fill-opacity:1;fill-rule:evenodd;stroke:none"
       d="m 547,283.832 -2,-6 -2,6 4,0 z" /><g
       transform="matrix(1,0,0,-1,0,306.58249)"
       id="g186"><path
         id="path188"
         style="fill:none;stroke:#000000;stroke-width:2;stroke-linecap:butt;stroke-linejoin:miter;stroke-miterlimit:8;stroke-opacity:1;stroke-dasharray:none"
         d="m 298,28.75 0,-18 247,0 0,15" /></g><path
       id="path190"
       style="fill:#000000;fill-opacity:1;fill-rule:evenodd;stroke:none"
       d="m 547,283.832 -2,-6 -2,6 4,0 z" /><g
       transform="matrix(1,0,0,-1,0,306.58249)"
       id="g192"><path
         id="path194"
         style="fill:none;stroke:#000000;stroke-width:2;stroke-linecap:butt;stroke-linejoin:miter;stroke-miterlimit:8;stroke-opacity:1;stroke-dasharray:none"
         d="m 280,28.75 0,-18 265,0 0,15" /></g><path
       id="path196"
       style="fill:#000000;fill-opacity:1;fill-rule:evenodd;stroke:none"
       d="m 547,283.832 -2,-6 -2,6 4,0 z" /><g
       transform="matrix(1,0,0,-1,0,306.58249)"
       id="g198"><path
         id="path200"
         style="fill:none;stroke:#000000;stroke-width:2;stroke-linecap:butt;stroke-linejoin:miter;stroke-miterlimit:8;stroke-opacity:1;stroke-dasharray:none"
         d="m 316,28.75 0,-18 229,0 0,15" /></g><path
       id="path202"
       style="fill:#000000;fill-opacity:1;fill-rule:evenodd;stroke:none"
       d="m 547,283.832 -2,-6 -2,6 4,0 z" /><g
       transform="matrix(1,0,0,-1,0,306.58249)"
       id="g204"><path
         id="path206"
         style="fill:none;stroke:#000000;stroke-width:2;stroke-linecap:butt;stroke-linejoin:miter;stroke-miterlimit:8;stroke-opacity:1;stroke-dasharray:none"
         d="m 388,28.75 0,-18 157,0 0,15" /></g><path
       id="path208"
       style="fill:#000000;fill-opacity:1;fill-rule:evenodd;stroke:none"
       d="m 547,283.832 -2,-6 -2,6 4,0 z" /><g
       transform="matrix(1,0,0,-1,0,306.58249)"
       id="g210"><path
         id="path212"
         style="fill:none;stroke:#000000;stroke-width:2;stroke-linecap:butt;stroke-linejoin:miter;stroke-miterlimit:8;stroke-opacity:1;stroke-dasharray:none"
         d="m 442,28.75 0,-18 103,0 0,15" /></g><path
       id="path214"
       style="fill:#000000;fill-opacity:1;fill-rule:evenodd;stroke:none"
       d="m 547,283.832 -2,-6 -2,6 4,0 z" /><g
       transform="matrix(1,0,0,-1,0,306.58249)"
       id="g216"><path
         id="path218"
         style="fill:none;stroke:#000000;stroke-width:2;stroke-linecap:butt;stroke-linejoin:miter;stroke-miterlimit:8;stroke-opacity:1;stroke-dasharray:none"
         d="m 478,28.75 0,-18 67,0 0,15" /></g><path
       id="path220"
       style="fill:#000000;fill-opacity:1;fill-rule:evenodd;stroke:none"
       d="m 547,283.832 -2,-6 -2,6 4,0 z" /><g
       transform="matrix(1,0,0,-1,0,306.58249)"
       id="g222"><path
         id="path224"
         style="fill:none;stroke:#000000;stroke-width:2;stroke-linecap:butt;stroke-linejoin:miter;stroke-miterlimit:8;stroke-opacity:1;stroke-dasharray:none"
         d="m 424,28.75 0,-18 121,0 0,15" /></g><path
       id="path226"
       style="fill:#000000;fill-opacity:1;fill-rule:evenodd;stroke:none"
       d="m 547,283.832 -2,-6 -2,6 4,0 z" /><g
       transform="matrix(1,0,0,-1,0,306.58249)"
       id="g228"><path
         id="path230"
         style="fill:none;stroke:#000000;stroke-width:2;stroke-linecap:butt;stroke-linejoin:round;stroke-miterlimit:10;stroke-opacity:1;stroke-dasharray:none"
         d="M 517,1.875 16,2" /></g><path
       id="path232"
       style="fill:#000000;fill-opacity:1;fill-rule:evenodd;stroke:none"
       d="m 19,302.582 -6,2 6,2 0,-4 z" /><g
       transform="matrix(1,0,0,-1,0,306.58249)"
       id="g234"><path
         id="path236"
         style="fill:none;stroke:#000000;stroke-width:2;stroke-linecap:butt;stroke-linejoin:miter;stroke-miterlimit:8;stroke-opacity:1;stroke-dasharray:none"
         d="m 55,28.75 18,0 0,18 -18,0 0,-18 z" /></g><path
       id="path238"
       style="fill:#000000;fill-opacity:1;fill-rule:nonzero;stroke:none"
       d="m 58.383,264 2.094,0 0,7.231 -2.278,-0.457 0,1.168 2.266,0.457 1.281,0 0,-8.399 2.094,0 0,-1.078 -5.457,0 0,1.078" /><path
       id="path240"
       style="fill:#000000;fill-opacity:1;fill-rule:nonzero;stroke:none"
       d="m 68.129,271.555 c -0.66,0 -1.156,-0.324 -1.492,-0.976 -0.328,-0.649 -0.492,-1.625 -0.492,-2.926 0,-1.301 0.164,-2.278 0.492,-2.926 0.336,-0.648 0.832,-0.973 1.492,-0.973 0.664,0 1.164,0.325 1.492,0.973 0.336,0.648 0.504,1.625 0.504,2.926 0,1.301 -0.168,2.277 -0.504,2.926 -0.328,0.652 -0.828,0.976 -1.492,0.976 m 0,1.016 c 1.062,0 1.875,-0.422 2.433,-1.262 0.563,-0.84 0.844,-2.059 0.844,-3.656 0,-1.598 -0.281,-2.817 -0.844,-3.656 -0.558,-0.84 -1.371,-1.258 -2.433,-1.258 -1.063,0 -1.875,0.418 -2.438,1.258 -0.558,0.839 -0.836,2.058 -0.836,3.656 0,1.597 0.278,2.816 0.836,3.656 0.563,0.84 1.375,1.262 2.438,1.262" /><g
       transform="matrix(1,0,0,-1,0,306.58249)"
       id="g242"><path
         id="path244"
         style="fill:none;stroke:#000000;stroke-width:2;stroke-linecap:butt;stroke-linejoin:miter;stroke-miterlimit:8;stroke-opacity:1;stroke-dasharray:none"
         d="m 109,28.75 18,0 0,18 -18,0 0,-18 z" /></g><path
       id="path246"
       style="fill:#000000;fill-opacity:1;fill-rule:nonzero;stroke:none"
       d="m 112.383,264 2.094,0 0,7.231 -2.278,-0.457 0,1.168 2.266,0.457 1.281,0 0,-8.399 2.094,0 0,-1.078 -5.457,0 0,1.078" /><path
       id="path248"
       style="fill:#000000;fill-opacity:1;fill-rule:nonzero;stroke:none"
       d="m 123.273,268.032 c 0.614,-0.129 1.09,-0.403 1.434,-0.817 0.348,-0.418 0.52,-0.929 0.52,-1.539 0,-0.933 -0.321,-1.656 -0.965,-2.168 -0.641,-0.515 -1.555,-0.769 -2.742,-0.769 -0.395,0 -0.809,0.039 -1.231,0.121 -0.418,0.074 -0.851,0.191 -1.301,0.347 l 0,1.239 c 0.356,-0.207 0.746,-0.364 1.168,-0.469 0.422,-0.105 0.867,-0.16 1.328,-0.16 0.801,0 1.414,0.16 1.832,0.476 0.426,0.317 0.637,0.778 0.637,1.383 0,0.559 -0.199,0.996 -0.59,1.309 -0.39,0.316 -0.933,0.476 -1.633,0.476 l -1.105,0 0,1.055 1.156,0 c 0.629,0 1.114,0.125 1.446,0.375 0.335,0.254 0.503,0.617 0.503,1.09 0,0.488 -0.175,0.859 -0.519,1.117 -0.344,0.262 -0.836,0.395 -1.481,0.395 -0.351,0 -0.726,-0.039 -1.128,-0.114 -0.403,-0.078 -0.844,-0.195 -1.329,-0.355 l 0,1.141 c 0.489,0.136 0.942,0.238 1.364,0.304 0.429,0.067 0.832,0.102 1.207,0.102 0.972,0 1.746,-0.223 2.312,-0.668 0.567,-0.438 0.848,-1.035 0.848,-1.789 0,-0.524 -0.149,-0.969 -0.449,-1.332 -0.301,-0.36 -0.727,-0.61 -1.282,-0.75" /><g
       transform="matrix(1,0,0,-1,0,306.58249)"
       id="g250"><path
         id="path252"
         style="fill:none;stroke:#000000;stroke-width:2;stroke-linecap:butt;stroke-linejoin:miter;stroke-miterlimit:8;stroke-opacity:1;stroke-dasharray:none"
         d="m 127,28.75 18,0 0,18 -18,0 0,-18 z" /></g><path
       id="path254"
       style="fill:#000000;fill-opacity:1;fill-rule:nonzero;stroke:none"
       d="m 130.383,264 2.094,0 0,7.231 -2.278,-0.457 0,1.168 2.266,0.457 1.281,0 0,-8.399 2.094,0 0,-1.078 -5.457,0 0,1.078" /><path
       id="path256"
       style="fill:#000000;fill-opacity:1;fill-rule:nonzero;stroke:none"
       d="m 140.91,271.282 -3.238,-5.059 3.238,0 0,5.059 m -0.336,1.117 1.614,0 0,-6.176 1.351,0 0,-1.066 -1.351,0 0,-2.235 -1.278,0 0,2.235 -4.277,0 0,1.238 3.941,6.004" /><g
       transform="matrix(1,0,0,-1,0,306.58249)"
       id="g258"><path
         id="path260"
         style="fill:none;stroke:#000000;stroke-width:2;stroke-linecap:butt;stroke-linejoin:miter;stroke-miterlimit:8;stroke-opacity:1;stroke-dasharray:none"
         d="m 46.625,47.125 0,11.25 17.375,0 0,8.375" /></g><path
       id="path262"
       style="fill:#000000;fill-opacity:1;fill-rule:evenodd;stroke:none"
       d="m 66,242.832 -2,-6 -2,6 4,0 z" /><g
       transform="matrix(1,0,0,-1,0,306.58249)"
       id="g264"><path
         id="path266"
         style="fill:none;stroke:#000000;stroke-width:2;stroke-linecap:butt;stroke-linejoin:round;stroke-miterlimit:10;stroke-opacity:1;stroke-dasharray:none"
         d="m 82,47.75 0,19" /></g><path
       id="path268"
       style="fill:#000000;fill-opacity:1;fill-rule:evenodd;stroke:none"
       d="m 84,242.832 -2,-6 -2,6 4,0 z" /><g
       transform="matrix(1,0,0,-1,0,306.58249)"
       id="g270"><path
         id="path272"
         style="fill:none;stroke:#000000;stroke-width:2;stroke-linecap:butt;stroke-linejoin:round;stroke-miterlimit:10;stroke-opacity:1;stroke-dasharray:none"
         d="m 118,47.75 0,19" /></g><path
       id="path274"
       style="fill:#000000;fill-opacity:1;fill-rule:evenodd;stroke:none"
       d="m 120,242.832 -2,-6 -2,6 4,0 z" /><g
       transform="matrix(1,0,0,-1,0,306.58249)"
       id="g276"><path
         id="path278"
         style="fill:none;stroke:#000000;stroke-width:2;stroke-linecap:butt;stroke-linejoin:miter;stroke-miterlimit:8;stroke-opacity:1;stroke-dasharray:none"
         d="m 154,47.75 0,6.375 -18,0 0,12.625" /></g><path
       id="path280"
       style="fill:#000000;fill-opacity:1;fill-rule:evenodd;stroke:none"
       d="m 138,242.832 -2,-6 -2,6 4,0 z" /><g
       transform="matrix(1,0,0,-1,0,306.58249)"
       id="g282"><path
         id="path284"
         style="fill:none;stroke:#000000;stroke-width:2;stroke-linecap:butt;stroke-linejoin:miter;stroke-miterlimit:8;stroke-opacity:1;stroke-dasharray:none"
         d="m 199,28.75 18,0 0,18 -18,0 0,-18 z" /></g><path
       id="path286"
       style="fill:#000000;fill-opacity:1;fill-rule:nonzero;stroke:none"
       d="m 202.383,264 2.094,0 0,7.231 -2.278,-0.457 0,1.168 2.266,0.457 1.281,0 0,-8.399 2.094,0 0,-1.078 -5.457,0 0,1.078" /><path
       id="path288"
       style="fill:#000000;fill-opacity:1;fill-rule:nonzero;stroke:none"
       d="m 209.426,263.118 0,1.168 c 0.32,-0.153 0.648,-0.266 0.976,-0.348 0.332,-0.082 0.657,-0.121 0.973,-0.121 0.848,0 1.492,0.285 1.937,0.851 0.446,0.571 0.704,1.438 0.766,2.598 -0.246,-0.367 -0.555,-0.644 -0.933,-0.84 -0.375,-0.195 -0.793,-0.293 -1.25,-0.293 -0.946,0 -1.7,0.285 -2.254,0.86 -0.547,0.574 -0.825,1.359 -0.825,2.355 0,0.973 0.289,1.754 0.864,2.34 0.574,0.59 1.343,0.883 2.297,0.883 1.097,0 1.933,-0.422 2.507,-1.262 0.582,-0.84 0.871,-2.059 0.871,-3.656 0,-1.496 -0.355,-2.688 -1.066,-3.582 -0.707,-0.887 -1.66,-1.332 -2.855,-1.332 -0.325,0 -0.649,0.031 -0.981,0.093 -0.328,0.067 -0.672,0.161 -1.027,0.286 m 2.551,4.019 c 0.578,0 1.031,0.195 1.367,0.59 0.336,0.395 0.508,0.934 0.508,1.621 0,0.68 -0.172,1.219 -0.508,1.609 -0.336,0.399 -0.789,0.598 -1.367,0.598 -0.575,0 -1.032,-0.199 -1.372,-0.598 -0.332,-0.39 -0.5,-0.929 -0.5,-1.609 0,-0.687 0.168,-1.226 0.5,-1.621 0.34,-0.395 0.797,-0.59 1.372,-0.59" /><g
       transform="matrix(1,0,0,-1,0,306.58249)"
       id="g290"><path
         id="path292"
         style="fill:none;stroke:#000000;stroke-width:2;stroke-linecap:butt;stroke-linejoin:miter;stroke-miterlimit:8;stroke-opacity:1;stroke-dasharray:none"
         d="m 217,28.75 18,0 0,18 -18,0 0,-18 z" /></g><path
       id="path294"
       style="fill:#000000;fill-opacity:1;fill-rule:nonzero;stroke:none"
       d="m 221.266,264 4.472,0 0,-1.078 -6.015,0 0,1.078 c 0.484,0.504 1.148,1.18 1.984,2.028 0.844,0.847 1.371,1.398 1.59,1.644 0.41,0.461 0.695,0.848 0.855,1.168 0.164,0.321 0.246,0.637 0.246,0.946 0,0.504 -0.175,0.914 -0.531,1.23 -0.351,0.316 -0.808,0.477 -1.379,0.477 -0.402,0 -0.824,-0.071 -1.273,-0.211 -0.445,-0.141 -0.922,-0.352 -1.43,-0.633 l 0,1.293 c 0.516,0.207 1,0.363 1.449,0.469 0.446,0.105 0.86,0.16 1.231,0.16 0.98,0 1.765,-0.246 2.347,-0.735 0.586,-0.492 0.876,-1.148 0.876,-1.968 0,-0.391 -0.075,-0.762 -0.223,-1.114 -0.141,-0.343 -0.406,-0.757 -0.793,-1.23 -0.106,-0.121 -0.442,-0.477 -1.008,-1.067 -0.566,-0.582 -1.367,-1.402 -2.398,-2.457" /><path
       id="path296"
       style="fill:#000000;fill-opacity:1;fill-rule:nonzero;stroke:none"
       d="m 227.609,264 2.094,0 0,7.231 -2.277,-0.457 0,1.168 2.265,0.457 1.282,0 0,-8.399 2.097,0 0,-1.078 -5.461,0 0,1.078" /><g
       transform="matrix(1,0,0,-1,0,306.58249)"
       id="g298"><path
         id="path300"
         style="fill:none;stroke:#000000;stroke-width:2;stroke-linecap:butt;stroke-linejoin:miter;stroke-miterlimit:8;stroke-opacity:1;stroke-dasharray:none"
         d="m 235,28.75 18,0 0,18 -18,0 0,-18 z" /></g><path
       id="path302"
       style="fill:#000000;fill-opacity:1;fill-rule:nonzero;stroke:none"
       d="m 239.266,264 4.472,0 0,-1.078 -6.015,0 0,1.078 c 0.484,0.504 1.148,1.18 1.984,2.028 0.844,0.847 1.371,1.398 1.59,1.644 0.41,0.461 0.695,0.848 0.855,1.168 0.164,0.321 0.246,0.637 0.246,0.946 0,0.504 -0.175,0.914 -0.531,1.23 -0.351,0.316 -0.808,0.477 -1.379,0.477 -0.402,0 -0.824,-0.071 -1.273,-0.211 -0.445,-0.141 -0.922,-0.352 -1.43,-0.633 l 0,1.293 c 0.516,0.207 1,0.363 1.449,0.469 0.446,0.105 0.86,0.16 1.231,0.16 0.98,0 1.765,-0.246 2.347,-0.735 0.586,-0.492 0.876,-1.148 0.876,-1.968 0,-0.391 -0.075,-0.762 -0.223,-1.114 -0.141,-0.343 -0.406,-0.757 -0.793,-1.23 -0.106,-0.121 -0.442,-0.477 -1.008,-1.067 -0.566,-0.582 -1.367,-1.402 -2.398,-2.457" /><path
       id="path304"
       style="fill:#000000;fill-opacity:1;fill-rule:nonzero;stroke:none"
       d="m 249.273,268.032 c 0.614,-0.129 1.09,-0.403 1.434,-0.817 0.348,-0.418 0.52,-0.929 0.52,-1.539 0,-0.933 -0.321,-1.656 -0.965,-2.168 -0.641,-0.515 -1.555,-0.769 -2.742,-0.769 -0.395,0 -0.809,0.039 -1.231,0.121 -0.418,0.074 -0.851,0.191 -1.301,0.347 l 0,1.239 c 0.356,-0.207 0.746,-0.364 1.168,-0.469 0.422,-0.105 0.867,-0.16 1.328,-0.16 0.801,0 1.414,0.16 1.832,0.476 0.426,0.317 0.637,0.778 0.637,1.383 0,0.559 -0.199,0.996 -0.59,1.309 -0.39,0.316 -0.933,0.476 -1.633,0.476 l -1.105,0 0,1.055 1.156,0 c 0.629,0 1.114,0.125 1.446,0.375 0.335,0.254 0.503,0.617 0.503,1.09 0,0.488 -0.175,0.859 -0.519,1.117 -0.344,0.262 -0.836,0.395 -1.481,0.395 -0.351,0 -0.726,-0.039 -1.128,-0.114 -0.403,-0.078 -0.844,-0.195 -1.329,-0.355 l 0,1.141 c 0.489,0.136 0.942,0.238 1.364,0.304 0.429,0.067 0.832,0.102 1.207,0.102 0.972,0 1.746,-0.223 2.312,-0.668 0.567,-0.438 0.848,-1.035 0.848,-1.789 0,-0.524 -0.149,-0.969 -0.449,-1.332 -0.301,-0.36 -0.727,-0.61 -1.282,-0.75" /><g
       transform="matrix(1,0,0,-1,0,306.58249)"
       id="g306"><path
         id="path308"
         style="fill:none;stroke:#000000;stroke-width:2;stroke-linecap:butt;stroke-linejoin:round;stroke-miterlimit:10;stroke-opacity:1;stroke-dasharray:none"
         d="m 172,47.75 0,19" /></g><path
       id="path310"
       style="fill:#000000;fill-opacity:1;fill-rule:evenodd;stroke:none"
       d="m 174,242.832 -2,-6 -2,6 4,0 z" /><g
       transform="matrix(1,0,0,-1,0,306.58249)"
       id="g312"><path
         id="path314"
         style="fill:none;stroke:#000000;stroke-width:2;stroke-linecap:butt;stroke-linejoin:round;stroke-miterlimit:10;stroke-opacity:1;stroke-dasharray:none"
         d="m 208,47.75 0,19" /></g><path
       id="path316"
       style="fill:#000000;fill-opacity:1;fill-rule:evenodd;stroke:none"
       d="m 210,242.832 -2,-6 -2,6 4,0 z" /><g
       transform="matrix(1,0,0,-1,0,306.58249)"
       id="g318"><path
         id="path320"
         style="fill:none;stroke:#000000;stroke-width:2;stroke-linecap:butt;stroke-linejoin:round;stroke-miterlimit:10;stroke-opacity:1;stroke-dasharray:none"
         d="m 226,47.75 0,19" /></g><path
       id="path322"
       style="fill:#000000;fill-opacity:1;fill-rule:evenodd;stroke:none"
       d="m 228,242.832 -2,-6 -2,6 4,0 z" /><g
       transform="matrix(1,0,0,-1,0,306.58249)"
       id="g324"><path
         id="path326"
         style="fill:none;stroke:#000000;stroke-width:2;stroke-linecap:butt;stroke-linejoin:round;stroke-miterlimit:10;stroke-opacity:1;stroke-dasharray:none"
         d="m 244,47.75 0,19" /></g><path
       id="path328"
       style="fill:#000000;fill-opacity:1;fill-rule:evenodd;stroke:none"
       d="m 246,242.832 -2,-6 -2,6 4,0 z" /><g
       transform="matrix(1,0,0,-1,0,306.58249)"
       id="g330"><path
         id="path332"
         style="fill:none;stroke:#000000;stroke-width:2;stroke-linecap:butt;stroke-linejoin:miter;stroke-miterlimit:8;stroke-opacity:1;stroke-dasharray:none"
         d="m 271,28.75 18,0 0,18 -18,0 0,-18 z" /></g><path
       id="path334"
       style="fill:#000000;fill-opacity:1;fill-rule:nonzero;stroke:none"
       d="m 275.266,264 4.472,0 0,-1.078 -6.015,0 0,1.078 c 0.484,0.504 1.148,1.18 1.984,2.028 0.844,0.847 1.371,1.398 1.59,1.644 0.41,0.461 0.695,0.848 0.855,1.168 0.164,0.321 0.246,0.637 0.246,0.946 0,0.504 -0.175,0.914 -0.531,1.23 -0.351,0.316 -0.808,0.477 -1.379,0.477 -0.402,0 -0.824,-0.071 -1.273,-0.211 -0.445,-0.141 -0.922,-0.352 -1.43,-0.633 l 0,1.293 c 0.516,0.207 1,0.363 1.449,0.469 0.446,0.105 0.86,0.16 1.231,0.16 0.98,0 1.765,-0.246 2.347,-0.735 0.586,-0.492 0.876,-1.148 0.876,-1.968 0,-0.391 -0.075,-0.762 -0.223,-1.114 -0.141,-0.343 -0.406,-0.757 -0.793,-1.23 -0.106,-0.121 -0.442,-0.477 -1.008,-1.067 -0.566,-0.582 -1.367,-1.402 -2.398,-2.457" /><path
       id="path336"
       style="fill:#000000;fill-opacity:1;fill-rule:nonzero;stroke:none"
       d="m 281.402,272.399 5.032,0 0,-1.078 -3.86,0 0,-2.324 c 0.188,0.062 0.375,0.109 0.559,0.14 0.187,0.035 0.375,0.051 0.558,0.051 1.059,0 1.899,-0.289 2.516,-0.871 0.617,-0.578 0.926,-1.363 0.926,-2.356 0,-1.019 -0.317,-1.812 -0.953,-2.379 -0.633,-0.562 -1.528,-0.843 -2.684,-0.843 -0.398,0 -0.805,0.035 -1.219,0.101 -0.41,0.067 -0.836,0.168 -1.277,0.305 l 0,1.289 c 0.383,-0.207 0.773,-0.363 1.18,-0.465 0.406,-0.101 0.836,-0.152 1.289,-0.152 0.734,0 1.312,0.191 1.742,0.578 0.426,0.387 0.641,0.906 0.641,1.566 0,0.661 -0.215,1.184 -0.641,1.571 -0.43,0.383 -1.008,0.578 -1.742,0.578 -0.34,0 -0.684,-0.039 -1.028,-0.117 -0.339,-0.075 -0.683,-0.192 -1.039,-0.356 l 0,4.762" /><g
       transform="matrix(1,0,0,-1,0,306.58249)"
       id="g338"><path
         id="path340"
         style="fill:none;stroke:#000000;stroke-width:2;stroke-linecap:butt;stroke-linejoin:miter;stroke-miterlimit:8;stroke-opacity:1;stroke-dasharray:none"
         d="m 325,28.75 18,0 0,18 -18,0 0,-18 z" /></g><path
       id="path342"
       style="fill:#000000;fill-opacity:1;fill-rule:nonzero;stroke:none"
       d="m 332.043,268.032 c 0.617,-0.129 1.094,-0.403 1.437,-0.817 0.348,-0.418 0.52,-0.929 0.52,-1.539 0,-0.933 -0.32,-1.656 -0.965,-2.168 -0.644,-0.515 -1.558,-0.769 -2.742,-0.769 -0.398,0 -0.809,0.039 -1.231,0.121 -0.421,0.074 -0.855,0.191 -1.3,0.347 l 0,1.239 c 0.355,-0.207 0.742,-0.364 1.168,-0.469 0.422,-0.105 0.863,-0.16 1.324,-0.16 0.805,0 1.418,0.16 1.836,0.476 0.422,0.317 0.633,0.778 0.633,1.383 0,0.559 -0.196,0.996 -0.59,1.309 -0.387,0.316 -0.934,0.476 -1.629,0.476 l -1.106,0 0,1.055 1.157,0 c 0.629,0 1.113,0.125 1.445,0.375 0.336,0.254 0.5,0.617 0.5,1.09 0,0.488 -0.172,0.859 -0.52,1.117 -0.343,0.262 -0.835,0.395 -1.476,0.395 -0.352,0 -0.731,-0.039 -1.133,-0.114 -0.402,-0.078 -0.844,-0.195 -1.324,-0.355 l 0,1.141 c 0.484,0.136 0.941,0.238 1.363,0.304 0.43,0.067 0.828,0.102 1.207,0.102 0.973,0 1.742,-0.223 2.309,-0.668 0.57,-0.438 0.851,-1.035 0.851,-1.789 0,-0.524 -0.148,-0.969 -0.449,-1.332 -0.301,-0.36 -0.73,-0.61 -1.285,-0.75" /><path
       id="path344"
       style="fill:#000000;fill-opacity:1;fill-rule:nonzero;stroke:none"
       d="m 335.609,264 2.094,0 0,7.231 -2.277,-0.457 0,1.168 2.265,0.457 1.282,0 0,-8.399 2.097,0 0,-1.078 -5.461,0 0,1.078" /><g
       transform="matrix(1,0,0,-1,0,306.58249)"
       id="g346"><path
         id="path348"
         style="fill:none;stroke:#000000;stroke-width:2;stroke-linecap:butt;stroke-linejoin:round;stroke-miterlimit:10;stroke-opacity:1;stroke-dasharray:none"
         d="m 280,47.75 0,19" /></g><path
       id="path350"
       style="fill:#000000;fill-opacity:1;fill-rule:evenodd;stroke:none"
       d="m 282,242.832 -2,-6 -2,6 4,0 z" /><g
       transform="matrix(1,0,0,-1,0,306.58249)"
       id="g352"><path
         id="path354"
         style="fill:none;stroke:#000000;stroke-width:2;stroke-linecap:butt;stroke-linejoin:round;stroke-miterlimit:10;stroke-opacity:1;stroke-dasharray:none"
         d="m 298,47.75 0,19" /></g><path
       id="path356"
       style="fill:#000000;fill-opacity:1;fill-rule:evenodd;stroke:none"
       d="m 300,242.832 -2,-6 -2,6 4,0 z" /><g
       transform="matrix(1,0,0,-1,0,306.58249)"
       id="g358"><path
         id="path360"
         style="fill:none;stroke:#000000;stroke-width:2;stroke-linecap:butt;stroke-linejoin:round;stroke-miterlimit:10;stroke-opacity:1;stroke-dasharray:none"
         d="m 334,47.75 0,19" /></g><path
       id="path362"
       style="fill:#000000;fill-opacity:1;fill-rule:evenodd;stroke:none"
       d="m 336,242.832 -2,-6 -2,6 4,0 z" /><g
       transform="matrix(1,0,0,-1,0,306.58249)"
       id="g364"><path
         id="path366"
         style="fill:none;stroke:#000000;stroke-width:2;stroke-linecap:butt;stroke-linejoin:miter;stroke-miterlimit:8;stroke-opacity:1;stroke-dasharray:none"
         d="m 361,28.75 18,0 0,18 -18,0 0,-18 z" /></g><path
       id="path368"
       style="fill:#000000;fill-opacity:1;fill-rule:nonzero;stroke:none"
       d="m 368.043,268.032 c 0.617,-0.129 1.094,-0.403 1.437,-0.817 0.348,-0.418 0.52,-0.929 0.52,-1.539 0,-0.933 -0.32,-1.656 -0.965,-2.168 -0.644,-0.515 -1.558,-0.769 -2.742,-0.769 -0.398,0 -0.809,0.039 -1.231,0.121 -0.421,0.074 -0.855,0.191 -1.3,0.347 l 0,1.239 c 0.355,-0.207 0.742,-0.364 1.168,-0.469 0.422,-0.105 0.863,-0.16 1.324,-0.16 0.805,0 1.418,0.16 1.836,0.476 0.422,0.317 0.633,0.778 0.633,1.383 0,0.559 -0.196,0.996 -0.59,1.309 -0.387,0.316 -0.934,0.476 -1.629,0.476 l -1.106,0 0,1.055 1.157,0 c 0.629,0 1.113,0.125 1.445,0.375 0.336,0.254 0.5,0.617 0.5,1.09 0,0.488 -0.172,0.859 -0.52,1.117 -0.343,0.262 -0.835,0.395 -1.476,0.395 -0.352,0 -0.731,-0.039 -1.133,-0.114 -0.402,-0.078 -0.844,-0.195 -1.324,-0.355 l 0,1.141 c 0.484,0.136 0.941,0.238 1.363,0.304 0.43,0.067 0.828,0.102 1.207,0.102 0.973,0 1.742,-0.223 2.309,-0.668 0.57,-0.438 0.851,-1.035 0.851,-1.789 0,-0.524 -0.148,-0.969 -0.449,-1.332 -0.301,-0.36 -0.73,-0.61 -1.285,-0.75" /><path
       id="path370"
       style="fill:#000000;fill-opacity:1;fill-rule:nonzero;stroke:none"
       d="m 375.273,268.032 c 0.614,-0.129 1.09,-0.403 1.434,-0.817 0.348,-0.418 0.52,-0.929 0.52,-1.539 0,-0.933 -0.321,-1.656 -0.965,-2.168 -0.641,-0.515 -1.555,-0.769 -2.742,-0.769 -0.395,0 -0.809,0.039 -1.231,0.121 -0.418,0.074 -0.851,0.191 -1.301,0.347 l 0,1.239 c 0.356,-0.207 0.746,-0.364 1.168,-0.469 0.422,-0.105 0.867,-0.16 1.328,-0.16 0.801,0 1.414,0.16 1.832,0.476 0.426,0.317 0.637,0.778 0.637,1.383 0,0.559 -0.199,0.996 -0.59,1.309 -0.39,0.316 -0.933,0.476 -1.633,0.476 l -1.105,0 0,1.055 1.156,0 c 0.629,0 1.114,0.125 1.446,0.375 0.335,0.254 0.503,0.617 0.503,1.09 0,0.488 -0.175,0.859 -0.519,1.117 -0.344,0.262 -0.836,0.395 -1.481,0.395 -0.351,0 -0.726,-0.039 -1.128,-0.114 -0.403,-0.078 -0.844,-0.195 -1.329,-0.355 l 0,1.141 c 0.489,0.136 0.942,0.238 1.364,0.304 0.429,0.067 0.832,0.102 1.207,0.102 0.972,0 1.746,-0.223 2.312,-0.668 0.567,-0.438 0.848,-1.035 0.848,-1.789 0,-0.524 -0.149,-0.969 -0.449,-1.332 -0.301,-0.36 -0.727,-0.61 -1.282,-0.75" /><g
       transform="matrix(1,0,0,-1,0,306.58249)"
       id="g372"><path
         id="path374"
         style="fill:none;stroke:#000000;stroke-width:2;stroke-linecap:butt;stroke-linejoin:miter;stroke-miterlimit:8;stroke-opacity:1;stroke-dasharray:none"
         d="m 379,28.75 18,0 0,18 -18,0 0,-18 z" /></g><path
       id="path376"
       style="fill:#000000;fill-opacity:1;fill-rule:nonzero;stroke:none"
       d="m 386.043,268.032 c 0.617,-0.129 1.094,-0.403 1.437,-0.817 0.348,-0.418 0.52,-0.929 0.52,-1.539 0,-0.933 -0.32,-1.656 -0.965,-2.168 -0.644,-0.515 -1.558,-0.769 -2.742,-0.769 -0.398,0 -0.809,0.039 -1.231,0.121 -0.421,0.074 -0.855,0.191 -1.3,0.347 l 0,1.239 c 0.355,-0.207 0.742,-0.364 1.168,-0.469 0.422,-0.105 0.863,-0.16 1.324,-0.16 0.805,0 1.418,0.16 1.836,0.476 0.422,0.317 0.633,0.778 0.633,1.383 0,0.559 -0.196,0.996 -0.59,1.309 -0.387,0.316 -0.934,0.476 -1.629,0.476 l -1.106,0 0,1.055 1.157,0 c 0.629,0 1.113,0.125 1.445,0.375 0.336,0.254 0.5,0.617 0.5,1.09 0,0.488 -0.172,0.859 -0.52,1.117 -0.343,0.262 -0.835,0.395 -1.476,0.395 -0.352,0 -0.731,-0.039 -1.133,-0.114 -0.402,-0.078 -0.844,-0.195 -1.324,-0.355 l 0,1.141 c 0.484,0.136 0.941,0.238 1.363,0.304 0.43,0.067 0.828,0.102 1.207,0.102 0.973,0 1.742,-0.223 2.309,-0.668 0.57,-0.438 0.851,-1.035 0.851,-1.789 0,-0.524 -0.148,-0.969 -0.449,-1.332 -0.301,-0.36 -0.73,-0.61 -1.285,-0.75" /><path
       id="path378"
       style="fill:#000000;fill-opacity:1;fill-rule:nonzero;stroke:none"
       d="m 389.402,272.399 5.032,0 0,-1.078 -3.86,0 0,-2.324 c 0.188,0.062 0.375,0.109 0.559,0.14 0.187,0.035 0.375,0.051 0.558,0.051 1.059,0 1.899,-0.289 2.516,-0.871 0.617,-0.578 0.926,-1.363 0.926,-2.356 0,-1.019 -0.317,-1.812 -0.953,-2.379 -0.633,-0.562 -1.528,-0.843 -2.684,-0.843 -0.398,0 -0.805,0.035 -1.219,0.101 -0.41,0.067 -0.836,0.168 -1.277,0.305 l 0,1.289 c 0.383,-0.207 0.773,-0.363 1.18,-0.465 0.406,-0.101 0.836,-0.152 1.289,-0.152 0.734,0 1.312,0.191 1.742,0.578 0.426,0.387 0.641,0.906 0.641,1.566 0,0.661 -0.215,1.184 -0.641,1.571 -0.43,0.383 -1.008,0.578 -1.742,0.578 -0.34,0 -0.684,-0.039 -1.028,-0.117 -0.339,-0.075 -0.683,-0.192 -1.039,-0.356 l 0,4.762" /><g
       transform="matrix(1,0,0,-1,0,306.58249)"
       id="g380"><path
         id="path382"
         style="fill:none;stroke:#000000;stroke-width:2;stroke-linecap:butt;stroke-linejoin:miter;stroke-miterlimit:8;stroke-opacity:1;stroke-dasharray:none"
         d="m 415,28.75 18,0 0,18 -18,0 0,-18 z" /></g><path
       id="path384"
       style="fill:#000000;fill-opacity:1;fill-rule:nonzero;stroke:none"
       d="m 422.043,268.032 c 0.617,-0.129 1.094,-0.403 1.437,-0.817 0.348,-0.418 0.52,-0.929 0.52,-1.539 0,-0.933 -0.32,-1.656 -0.965,-2.168 -0.644,-0.515 -1.558,-0.769 -2.742,-0.769 -0.398,0 -0.809,0.039 -1.231,0.121 -0.421,0.074 -0.855,0.191 -1.3,0.347 l 0,1.239 c 0.355,-0.207 0.742,-0.364 1.168,-0.469 0.422,-0.105 0.863,-0.16 1.324,-0.16 0.805,0 1.418,0.16 1.836,0.476 0.422,0.317 0.633,0.778 0.633,1.383 0,0.559 -0.196,0.996 -0.59,1.309 -0.387,0.316 -0.934,0.476 -1.629,0.476 l -1.106,0 0,1.055 1.157,0 c 0.629,0 1.113,0.125 1.445,0.375 0.336,0.254 0.5,0.617 0.5,1.09 0,0.488 -0.172,0.859 -0.52,1.117 -0.343,0.262 -0.835,0.395 -1.476,0.395 -0.352,0 -0.731,-0.039 -1.133,-0.114 -0.402,-0.078 -0.844,-0.195 -1.324,-0.355 l 0,1.141 c 0.484,0.136 0.941,0.238 1.363,0.304 0.43,0.067 0.828,0.102 1.207,0.102 0.973,0 1.742,-0.223 2.309,-0.668 0.57,-0.438 0.851,-1.035 0.851,-1.789 0,-0.524 -0.148,-0.969 -0.449,-1.332 -0.301,-0.36 -0.73,-0.61 -1.285,-0.75" /><path
       id="path386"
       style="fill:#000000;fill-opacity:1;fill-rule:nonzero;stroke:none"
       d="m 425.426,263.118 0,1.168 c 0.32,-0.153 0.648,-0.266 0.976,-0.348 0.332,-0.082 0.657,-0.121 0.973,-0.121 0.848,0 1.492,0.285 1.937,0.851 0.446,0.571 0.704,1.438 0.766,2.598 -0.246,-0.367 -0.555,-0.644 -0.933,-0.84 -0.375,-0.195 -0.793,-0.293 -1.25,-0.293 -0.946,0 -1.7,0.285 -2.254,0.86 -0.547,0.574 -0.825,1.359 -0.825,2.355 0,0.973 0.289,1.754 0.864,2.34 0.574,0.59 1.343,0.883 2.297,0.883 1.097,0 1.933,-0.422 2.507,-1.262 0.582,-0.84 0.871,-2.059 0.871,-3.656 0,-1.496 -0.355,-2.688 -1.066,-3.582 -0.707,-0.887 -1.66,-1.332 -2.855,-1.332 -0.325,0 -0.649,0.031 -0.981,0.093 -0.328,0.067 -0.672,0.161 -1.027,0.286 m 2.551,4.019 c 0.578,0 1.031,0.195 1.367,0.59 0.336,0.395 0.508,0.934 0.508,1.621 0,0.68 -0.172,1.219 -0.508,1.609 -0.336,0.399 -0.789,0.598 -1.367,0.598 -0.575,0 -1.032,-0.199 -1.372,-0.598 -0.332,-0.39 -0.5,-0.929 -0.5,-1.609 0,-0.687 0.168,-1.226 0.5,-1.621 0.34,-0.395 0.797,-0.59 1.372,-0.59" /><g
       transform="matrix(1,0,0,-1,0,306.58249)"
       id="g388"><path
         id="path390"
         style="fill:none;stroke:#000000;stroke-width:2;stroke-linecap:butt;stroke-linejoin:round;stroke-miterlimit:10;stroke-opacity:1;stroke-dasharray:none"
         d="m 370,47.75 0,19" /></g><path
       id="path392"
       style="fill:#000000;fill-opacity:1;fill-rule:evenodd;stroke:none"
       d="m 372,242.832 -2,-6 -2,6 4,0 z" /><g
       transform="matrix(1,0,0,-1,0,306.58249)"
       id="g394"><path
         id="path396"
         style="fill:none;stroke:#000000;stroke-width:2;stroke-linecap:butt;stroke-linejoin:round;stroke-miterlimit:10;stroke-opacity:1;stroke-dasharray:none"
         d="m 388,47.75 0,19" /></g><path
       id="path398"
       style="fill:#000000;fill-opacity:1;fill-rule:evenodd;stroke:none"
       d="m 390,242.832 -2,-6 -2,6 4,0 z" /><g
       transform="matrix(1,0,0,-1,0,306.58249)"
       id="g400"><path
         id="path402"
         style="fill:none;stroke:#000000;stroke-width:2;stroke-linecap:butt;stroke-linejoin:round;stroke-miterlimit:10;stroke-opacity:1;stroke-dasharray:none"
         d="m 406,47.75 0,19" /></g><path
       id="path404"
       style="fill:#000000;fill-opacity:1;fill-rule:evenodd;stroke:none"
       d="m 408,242.832 -2,-6 -2,6 4,0 z" /><g
       transform="matrix(1,0,0,-1,0,306.58249)"
       id="g406"><path
         id="path408"
         style="fill:none;stroke:#000000;stroke-width:2;stroke-linecap:butt;stroke-linejoin:round;stroke-miterlimit:10;stroke-opacity:1;stroke-dasharray:none"
         d="m 424,47.75 0,19" /></g><path
       id="path410"
       style="fill:#000000;fill-opacity:1;fill-rule:evenodd;stroke:none"
       d="m 426,242.832 -2,-6 -2,6 4,0 z" /><g
       transform="matrix(1,0,0,-1,0,306.58249)"
       id="g412"><path
         id="path414"
         style="fill:none;stroke:#000000;stroke-width:2;stroke-linecap:butt;stroke-linejoin:miter;stroke-miterlimit:8;stroke-opacity:1;stroke-dasharray:none"
         d="m 433,28.75 18,0 0,18 -18,0 0,-18 z" /></g><path
       id="path416"
       style="fill:#000000;fill-opacity:1;fill-rule:nonzero;stroke:none"
       d="m 439.684,271.282 -3.239,-5.059 3.239,0 0,5.059 m -0.336,1.117 1.609,0 0,-6.176 1.355,0 0,-1.066 -1.355,0 0,-2.235 -1.273,0 0,2.235 -4.278,0 0,1.238 3.942,6.004" /><path
       id="path418"
       style="fill:#000000;fill-opacity:1;fill-rule:nonzero;stroke:none"
       d="m 443.609,264 2.094,0 0,7.231 -2.277,-0.457 0,1.168 2.265,0.457 1.282,0 0,-8.399 2.097,0 0,-1.078 -5.461,0 0,1.078" /><g
       transform="matrix(1,0,0,-1,0,306.58249)"
       id="g420"><path
         id="path422"
         style="fill:none;stroke:#000000;stroke-width:2;stroke-linecap:butt;stroke-linejoin:miter;stroke-miterlimit:8;stroke-opacity:1;stroke-dasharray:none"
         d="m 505,28.75 18,0 0,18 -18,0 0,-18 z" /></g><path
       id="path424"
       style="fill:#000000;fill-opacity:1;fill-rule:nonzero;stroke:none"
       d="m 511.684,271.282 -3.239,-5.059 3.239,0 0,5.059 m -0.336,1.117 1.609,0 0,-6.176 1.355,0 0,-1.066 -1.355,0 0,-2.235 -1.273,0 0,2.235 -4.278,0 0,1.238 3.942,6.004" /><path
       id="path426"
       style="fill:#000000;fill-opacity:1;fill-rule:nonzero;stroke:none"
       d="m 515.062,272.399 6.094,0 0,-0.547 -3.437,-8.93 -1.34,0 3.238,8.399 -4.555,0 0,1.078" /><g
       transform="matrix(1,0,0,-1,0,306.58249)"
       id="g428"><path
         id="path430"
         style="fill:#ffffff;fill-opacity:1;fill-rule:evenodd;stroke:#000000;stroke-width:2;stroke-linecap:butt;stroke-linejoin:miter;stroke-miterlimit:8;stroke-opacity:1;stroke-dasharray:none"
         d="m 61,82.75 19.5,36 39,0 19.5,-36 -78,0 z" /></g><path
       id="path432"
       style="fill:#000000;fill-opacity:1;fill-rule:nonzero;stroke:none"
       d="m 99.938,210.93 -0.254,-1.344 -1.547,0 c -0.586,0 -1.012,-0.117 -1.282,-0.351 -0.265,-0.231 -0.46,-0.653 -0.589,-1.266 l -0.176,-0.871 2.664,0 -0.238,-1.258 -2.664,0 -1.668,-8.586 -1.629,0 1.679,8.586 -1.546,0 0.23,1.258 1.547,0 0.129,0.684 c 0.222,1.16 0.613,1.976 1.172,2.445 0.562,0.469 1.441,0.703 2.644,0.703 l 1.528,0" /><g
       transform="matrix(1,0,0,-1,0,306.58249)"
       id="g438"><path
         id="path440"
         style="fill:none;stroke:#000000;stroke-width:2;stroke-linecap:butt;stroke-linejoin:round;stroke-miterlimit:10;stroke-opacity:1;stroke-dasharray:none"
         d="m 442,47.75 0,19" /></g><path
       id="path442"
       style="fill:#000000;fill-opacity:1;fill-rule:evenodd;stroke:none"
       d="m 444,242.832 -2,-6 -2,6 4,0 z" /><g
       transform="matrix(1,0,0,-1,0,306.58249)"
       id="g444"><path
         id="path446"
         style="fill:none;stroke:#000000;stroke-width:2;stroke-linecap:butt;stroke-linejoin:round;stroke-miterlimit:10;stroke-opacity:1;stroke-dasharray:none"
         d="m 478,47.75 0,19" /></g><path
       id="path448"
       style="fill:#000000;fill-opacity:1;fill-rule:evenodd;stroke:none"
       d="m 480,242.832 -2,-6 -2,6 4,0 z" /><g
       transform="matrix(1,0,0,-1,0,306.58249)"
       id="g450"><path
         id="path452"
         style="fill:none;stroke:#000000;stroke-width:2;stroke-linecap:butt;stroke-linejoin:round;stroke-miterlimit:10;stroke-opacity:1;stroke-dasharray:none"
         d="m 496,47.75 0,19" /></g><path
       id="path454"
       style="fill:#000000;fill-opacity:1;fill-rule:evenodd;stroke:none"
       d="m 498,242.832 -2,-6 -2,6 4,0 z" /><g
       transform="matrix(1,0,0,-1,0,306.58249)"
       id="g456"><path
         id="path458"
         style="fill:none;stroke:#000000;stroke-width:2;stroke-linecap:butt;stroke-linejoin:round;stroke-miterlimit:10;stroke-opacity:1;stroke-dasharray:none"
         d="m 514,47.75 0,19" /></g><path
       id="path460"
       style="fill:#000000;fill-opacity:1;fill-rule:evenodd;stroke:none"
       d="m 516,242.832 -2,-6 -2,6 4,0 z" /><g
       transform="matrix(1,0,0,-1,0,306.58249)"
       id="g462"><path
         id="path464"
         style="fill:#ffffff;fill-opacity:1;fill-rule:evenodd;stroke:#000000;stroke-width:2;stroke-linecap:butt;stroke-linejoin:miter;stroke-miterlimit:8;stroke-opacity:1;stroke-dasharray:none"
         d="m 169,82.75 19.5,36 39,0 19.5,-36 -78,0 z" /></g><path
       id="path466"
       style="fill:#000000;fill-opacity:1;fill-rule:nonzero;stroke:none"
       d="m 207.938,210.93 -0.254,-1.344 -1.547,0 c -0.586,0 -1.012,-0.117 -1.282,-0.351 -0.265,-0.231 -0.46,-0.653 -0.589,-1.266 l -0.176,-0.871 2.664,0 -0.238,-1.258 -2.664,0 -1.668,-8.586 -1.629,0 1.679,8.586 -1.546,0 0.23,1.258 1.547,0 0.129,0.684 c 0.222,1.16 0.613,1.976 1.172,2.445 0.562,0.469 1.441,0.703 2.644,0.703 l 1.528,0" /><g
       transform="matrix(1,0,0,-1,0,306.58249)"
       id="g472"><path
         id="path474"
         style="fill:#ffffff;fill-opacity:1;fill-rule:evenodd;stroke:#000000;stroke-width:2;stroke-linecap:butt;stroke-linejoin:miter;stroke-miterlimit:8;stroke-opacity:1;stroke-dasharray:none"
         d="m 259,82.75 19.5,36 39,0 19.5,-36 -78,0 z" /></g><path
       id="path476"
       style="fill:#000000;fill-opacity:1;fill-rule:nonzero;stroke:none"
       d="m 297.938,210.93 -0.254,-1.344 -1.547,0 c -0.586,0 -1.012,-0.117 -1.282,-0.351 -0.265,-0.231 -0.46,-0.653 -0.589,-1.266 l -0.176,-0.871 2.664,0 -0.238,-1.258 -2.664,0 -1.668,-8.586 -1.629,0 1.679,8.586 -1.546,0 0.23,1.258 1.547,0 0.129,0.684 c 0.222,1.16 0.613,1.976 1.172,2.445 0.562,0.469 1.441,0.703 2.644,0.703 l 1.528,0" /><g
       transform="matrix(1,0,0,-1,0,306.58249)"
       id="g482"><path
         id="path484"
         style="fill:#ffffff;fill-opacity:1;fill-rule:evenodd;stroke:#000000;stroke-width:2;stroke-linecap:butt;stroke-linejoin:miter;stroke-miterlimit:8;stroke-opacity:1;stroke-dasharray:none"
         d="m 349,82.75 17.551,36 42.898,0 17.551,-36 -78,0 z" /></g><path
       id="path486"
       style="fill:#000000;fill-opacity:1;fill-rule:nonzero;stroke:none"
       d="m 387.938,211.379 -0.254,-1.343 -1.547,0 c -0.586,0 -1.012,-0.118 -1.282,-0.352 -0.265,-0.23 -0.46,-0.652 -0.589,-1.266 l -0.176,-0.871 2.664,0 -0.238,-1.257 -2.664,0 -1.668,-8.586 -1.629,0 1.679,8.586 -1.546,0 0.23,1.257 1.547,0 0.129,0.688 c 0.222,1.16 0.613,1.972 1.172,2.441 0.562,0.469 1.441,0.703 2.644,0.703 l 1.528,0" /><g
       transform="matrix(1,0,0,-1,0,306.58249)"
       id="g492"><path
         id="path494"
         style="fill:#ffffff;fill-opacity:1;fill-rule:evenodd;stroke:#000000;stroke-width:2;stroke-linecap:butt;stroke-linejoin:miter;stroke-miterlimit:8;stroke-opacity:1;stroke-dasharray:none"
         d="m 439,82.75 19.5,36 39,0 19.5,-36 -78,0 z" /></g><path
       id="path496"
       style="fill:#000000;fill-opacity:1;fill-rule:nonzero;stroke:none"
       d="m 477.938,210.93 -0.254,-1.344 -1.547,0 c -0.586,0 -1.012,-0.117 -1.282,-0.351 -0.265,-0.231 -0.46,-0.653 -0.589,-1.266 l -0.176,-0.871 2.664,0 -0.238,-1.258 -2.664,0 -1.668,-8.586 -1.629,0 1.679,8.586 -1.546,0 0.23,1.258 1.547,0 0.129,0.684 c 0.222,1.16 0.613,1.976 1.172,2.445 0.562,0.469 1.441,0.703 2.644,0.703 l 1.528,0" /><g
       transform="matrix(1,0,0,-1,0.42564765,305.73119)"
       id="g502"><path
         id="path504"
         style="fill:#ffffff;fill-opacity:1;fill-rule:evenodd;stroke:#000000;stroke-width:2;stroke-linecap:butt;stroke-linejoin:miter;stroke-miterlimit:8;stroke-opacity:1;stroke-dasharray:none"
         d="m 97,148.75 21.848,39.125 340.304,0 21.848,-39.125 -384,0 z" /></g><g
       transform="matrix(1,0,0,-1,0,306.58249)"
       id="g534"><path
         id="path536"
         style="fill:none;stroke:#000000;stroke-width:2;stroke-linecap:butt;stroke-linejoin:round;stroke-miterlimit:10;stroke-opacity:1;stroke-dasharray:none"
         d="m 100,118.75 0.102,14" /></g><path
       id="path538"
       style="fill:#000000;fill-opacity:1;fill-rule:evenodd;stroke:none"
       d="m 102.082,176.844 -1.957,-6.012 -2.043,5.985 4,0.027 z" /><g
       transform="matrix(1,0,0,-1,0,306.58249)"
       id="g540"><path
         id="path542"
         style="fill:none;stroke:#000000;stroke-width:2;stroke-linecap:butt;stroke-linejoin:round;stroke-miterlimit:10;stroke-opacity:1;stroke-dasharray:none"
         d="m 208,118.75 0.102,14" /></g><path
       id="path544"
       style="fill:#000000;fill-opacity:1;fill-rule:evenodd;stroke:none"
       d="m 210.082,176.844 -1.957,-6.012 -2.043,5.985 4,0.027 z" /><g
       transform="matrix(1,0,0,-1,0,306.58249)"
       id="g546"><path
         id="path548"
         style="fill:none;stroke:#000000;stroke-width:2;stroke-linecap:butt;stroke-linejoin:round;stroke-miterlimit:10;stroke-opacity:1;stroke-dasharray:none"
         d="m 298,118.75 0.102,14" /></g><path
       id="path550"
       style="fill:#000000;fill-opacity:1;fill-rule:evenodd;stroke:none"
       d="m 300.082,176.844 -1.957,-6.012 -2.043,5.985 4,0.027 z" /><g
       transform="matrix(1,0,0,-1,0,306.58249)"
       id="g552"><path
         id="path554"
         style="fill:none;stroke:#000000;stroke-width:2;stroke-linecap:butt;stroke-linejoin:round;stroke-miterlimit:10;stroke-opacity:1;stroke-dasharray:none"
         d="m 388,118.75 0.102,14" /></g><path
       id="path556"
       style="fill:#000000;fill-opacity:1;fill-rule:evenodd;stroke:none"
       d="m 390.082,176.844 -1.957,-6.012 -2.043,5.985 4,0.027 z" /><g
       transform="matrix(1,0,0,-1,0,306.58249)"
       id="g558"><path
         id="path560"
         style="fill:none;stroke:#000000;stroke-width:2;stroke-linecap:butt;stroke-linejoin:round;stroke-miterlimit:10;stroke-opacity:1;stroke-dasharray:none"
         d="m 478,118.75 0.102,14" /></g><path
       id="path562"
       style="fill:#000000;fill-opacity:1;fill-rule:evenodd;stroke:none"
       d="m 480.082,176.844 -1.957,-6.012 -2.043,5.985 4,0.027 z" /><g
       transform="matrix(1,0,0,-1,0,306.58249)"
       id="g564"><path
         id="path566"
         style="fill:none;stroke:#000000;stroke-width:2;stroke-linecap:butt;stroke-linejoin:round;stroke-miterlimit:10;stroke-opacity:1;stroke-dasharray:none"
         d="m 289,187.875 0.102,11.875" /></g><path
       id="path568"
       style="fill:#000000;fill-opacity:1;fill-rule:evenodd;stroke:none"
       d="m 291.074,109.848 -1.949,-6.016 -2.051,5.981 4,0.035 z" /><path
       id="path706"
       style="fill:#000000;fill-opacity:1;fill-rule:nonzero;stroke:none"
       d="m 245.418,104.622 1.797,0 -1.719,-8.856 6.164,4.598 2.332,0 -6.875,-5.235 5.02,-5.703 -2.176,0 -4.668,5.344 -1.035,-5.344 -1.797,0 2.957,15.196" /><path
       id="path708"
       style="fill:#000000;fill-opacity:1;fill-rule:nonzero;stroke:none"
       d="m 262.977,95.872 c 0.019,0.105 0.035,0.21 0.039,0.324 0.015,0.109 0.019,0.219 0.019,0.332 0,0.793 -0.234,1.422 -0.703,1.883 -0.461,0.464 -1.094,0.695 -1.894,0.695 -0.891,0 -1.68,-0.285 -2.364,-0.852 -0.683,-0.558 -1.199,-1.355 -1.551,-2.39 l 6.454,0.008 m 1.562,-1.407 -8.359,0 c -0.039,-0.246 -0.063,-0.441 -0.078,-0.586 -0.012,-0.14 -0.02,-0.265 -0.02,-0.371 0,-0.902 0.277,-1.605 0.832,-2.097 0.559,-0.496 1.348,-0.743 2.363,-0.743 0.782,0 1.52,0.086 2.215,0.262 0.699,0.176 1.344,0.434 1.946,0.774 l -0.344,-1.778 c -0.645,-0.261 -1.313,-0.457 -2,-0.586 -0.684,-0.133 -1.383,-0.195 -2.09,-0.195 -1.52,0 -2.688,0.359 -3.508,1.082 -0.812,0.73 -1.219,1.762 -1.219,3.098 0,1.136 0.2,2.195 0.606,3.172 0.41,0.984 1.008,1.859 1.797,2.628 0.508,0.481 1.109,0.852 1.804,1.114 0.704,0.258 1.45,0.39 2.239,0.39 1.234,0 2.218,-0.371 2.949,-1.113 0.734,-0.742 1.101,-1.738 1.101,-2.988 0,-0.301 -0.019,-0.621 -0.058,-0.969 -0.039,-0.336 -0.098,-0.703 -0.176,-1.094" /><path
       id="path710"
       style="fill:#000000;fill-opacity:1;fill-rule:nonzero;stroke:none"
       d="m 270.625,88.411 c -0.836,-1.399 -1.516,-2.27 -2.043,-2.618 -0.52,-0.351 -1.187,-0.527 -2,-0.527 l -1.418,0 0.305,1.504 1.035,0 c 0.5,0 0.926,0.137 1.277,0.41 0.352,0.274 0.746,0.809 1.184,1.602 l 0.555,1.047 -2.422,10.535 1.906,0 1.816,-8.379 5.02,8.379 1.883,0 -7.098,-11.953" /><path
       id="path712"
       style="fill:#000000;fill-opacity:1;fill-rule:nonzero;stroke:none"
       d="m 287.5,100.043 -0.344,-1.699 c -0.472,0.258 -0.976,0.453 -1.504,0.586 -0.527,0.129 -1.07,0.195 -1.629,0.195 -0.945,0 -1.691,-0.164 -2.238,-0.488 -0.539,-0.32 -0.808,-0.758 -0.808,-1.308 0,-0.645 0.628,-1.141 1.894,-1.485 0.098,-0.027 0.168,-0.047 0.215,-0.058 l 0.574,-0.176 c 1.199,-0.332 1.996,-0.68 2.395,-1.047 0.402,-0.363 0.605,-0.863 0.605,-1.492 0,-1.16 -0.465,-2.106 -1.387,-2.832 -0.918,-0.731 -2.125,-1.094 -3.613,-1.094 -0.582,0 -1.187,0.055 -1.828,0.164 -0.637,0.113 -1.34,0.285 -2.109,0.52 l 0.351,1.855 c 0.66,-0.34 1.305,-0.598 1.946,-0.773 0.636,-0.176 1.25,-0.262 1.835,-0.262 0.879,0 1.59,0.187 2.137,0.566 0.555,0.375 0.832,0.856 0.832,1.434 0,0.625 -0.722,1.129 -2.168,1.516 l -0.187,0.046 -0.614,0.157 c -0.914,0.242 -1.578,0.558 -2.003,0.949 -0.422,0.394 -0.633,0.902 -0.633,1.512 0,1.168 0.433,2.089 1.308,2.773 0.879,0.684 2.071,1.027 3.575,1.027 0.589,0 1.168,-0.05 1.726,-0.148 0.567,-0.098 1.125,-0.242 1.672,-0.438" /><path
       id="path714"
       style="fill:#000000;fill-opacity:1;fill-rule:nonzero;stroke:none"
       d="m 296.387,100.364 -0.274,-1.395 -3.586,0 -1.16,-5.937 c -0.039,-0.223 -0.07,-0.407 -0.09,-0.559 -0.019,-0.148 -0.027,-0.266 -0.027,-0.351 0,-0.415 0.121,-0.719 0.371,-0.907 0.254,-0.191 0.656,-0.285 1.211,-0.285 l 1.816,0 -0.304,-1.504 -1.719,0 c -1.066,0 -1.863,0.211 -2.391,0.625 -0.523,0.418 -0.781,1.051 -0.781,1.895 0,0.152 0.008,0.312 0.027,0.488 0.02,0.184 0.051,0.383 0.09,0.598 l 1.16,5.937 -1.523,0 0.285,1.395 1.492,0 0.606,3.105 1.797,0 -0.594,-3.105 3.594,0" /><path
       id="path716"
       style="fill:#000000;fill-opacity:1;fill-rule:nonzero;stroke:none"
       d="m 304.695,98.704 c -0.179,0.097 -0.39,0.171 -0.625,0.226 -0.234,0.051 -0.484,0.078 -0.75,0.078 -0.957,0 -1.793,-0.367 -2.511,-1.093 -0.715,-0.723 -1.192,-1.696 -1.426,-2.911 l -1.102,-5.578 -1.797,0 2.137,10.938 1.797,0 -0.34,-1.699 c 0.473,0.632 1.039,1.117 1.699,1.457 0.664,0.335 1.371,0.507 2.118,0.507 0.195,0 0.386,-0.015 0.578,-0.039 0.187,-0.019 0.375,-0.054 0.566,-0.109 l -0.344,-1.777" /><path
       id="path718"
       style="fill:#000000;fill-opacity:1;fill-rule:nonzero;stroke:none"
       d="m 313.641,95.872 c 0.019,0.105 0.035,0.21 0.039,0.324 0.015,0.109 0.019,0.219 0.019,0.332 0,0.793 -0.234,1.422 -0.703,1.883 -0.461,0.464 -1.094,0.695 -1.894,0.695 -0.891,0 -1.68,-0.285 -2.364,-0.852 -0.683,-0.558 -1.199,-1.355 -1.55,-2.39 l 6.453,0.008 m 1.562,-1.407 -8.359,0 c -0.039,-0.246 -0.063,-0.441 -0.078,-0.586 -0.012,-0.14 -0.02,-0.265 -0.02,-0.371 0,-0.902 0.277,-1.605 0.832,-2.097 0.559,-0.496 1.348,-0.743 2.363,-0.743 0.782,0 1.52,0.086 2.215,0.262 0.699,0.176 1.344,0.434 1.946,0.774 l -0.344,-1.778 c -0.645,-0.261 -1.313,-0.457 -2,-0.586 -0.684,-0.133 -1.383,-0.195 -2.09,-0.195 -1.52,0 -2.688,0.359 -3.508,1.082 -0.812,0.73 -1.219,1.762 -1.219,3.098 0,1.136 0.2,2.195 0.606,3.172 0.41,0.984 1.008,1.859 1.797,2.628 0.508,0.481 1.109,0.852 1.804,1.114 0.704,0.258 1.45,0.39 2.239,0.39 1.234,0 2.218,-0.371 2.949,-1.113 0.734,-0.742 1.102,-1.738 1.102,-2.988 0,-0.301 -0.02,-0.621 -0.059,-0.969 -0.039,-0.336 -0.098,-0.703 -0.176,-1.094" /><path
       id="path720"
       style="fill:#000000;fill-opacity:1;fill-rule:nonzero;stroke:none"
       d="m 327.07,95.668 -1.222,-6.242 -1.797,0 0.332,1.66 c -0.528,-0.648 -1.129,-1.136 -1.805,-1.464 -0.672,-0.317 -1.422,-0.477 -2.246,-0.477 -0.934,0 -1.695,0.281 -2.297,0.848 -0.59,0.574 -0.887,1.304 -0.887,2.199 0,1.273 0.508,2.285 1.524,3.027 1.019,0.742 2.426,1.113 4.219,1.113 l 2.5,0 0.097,0.477 c 0.012,0.055 0.024,0.109 0.028,0.168 0.007,0.063 0.011,0.16 0.011,0.293 0,0.578 -0.238,1.027 -0.715,1.348 -0.468,0.324 -1.128,0.488 -1.98,0.488 -0.586,0 -1.187,-0.074 -1.809,-0.227 -0.609,-0.148 -1.242,-0.375 -1.894,-0.672 l 0.312,1.661 c 0.68,0.254 1.34,0.441 1.985,0.566 0.648,0.129 1.277,0.195 1.883,0.195 1.289,0 2.269,-0.281 2.941,-0.839 0.676,-0.563 1.016,-1.375 1.016,-2.442 0,-0.215 -0.016,-0.469 -0.051,-0.762 -0.031,-0.289 -0.082,-0.593 -0.145,-0.918 m -1.945,-0.742 -1.797,0 c -1.469,0 -2.562,-0.199 -3.269,-0.597 -0.704,-0.391 -1.055,-1 -1.055,-1.825 0,-0.574 0.18,-1.023 0.535,-1.347 0.367,-0.328 0.867,-0.489 1.504,-0.489 0.977,0 1.832,0.348 2.559,1.043 0.73,0.704 1.21,1.641 1.445,2.813 l 0.078,0.402" /><path
       id="path722"
       style="fill:#000000;fill-opacity:1;fill-rule:nonzero;stroke:none"
       d="m 346.551,96.028 -1.278,-6.602 -1.796,0 1.257,6.543 c 0.055,0.281 0.094,0.524 0.118,0.723 0.027,0.203 0.039,0.375 0.039,0.519 0,0.586 -0.161,1.039 -0.489,1.368 -0.324,0.324 -0.781,0.488 -1.367,0.488 -0.871,0 -1.648,-0.328 -2.332,-0.988 -0.683,-0.649 -1.129,-1.5 -1.328,-2.547 l -1.203,-6.106 -1.797,0 1.281,6.543 c 0.051,0.242 0.09,0.465 0.117,0.664 0.024,0.211 0.039,0.395 0.039,0.559 0,0.59 -0.164,1.051 -0.488,1.375 -0.328,0.332 -0.777,0.5 -1.347,0.5 -0.887,0 -1.672,-0.328 -2.356,-0.988 -0.683,-0.649 -1.125,-1.5 -1.328,-2.547 l -1.199,-6.106 -1.797,0 2.137,10.938 1.796,0 -0.339,-1.699 c 0.488,0.64 1.058,1.125 1.707,1.457 0.66,0.335 1.363,0.507 2.109,0.507 0.797,0 1.445,-0.211 1.953,-0.625 0.516,-0.418 0.824,-0.996 0.93,-1.738 0.547,0.766 1.176,1.352 1.894,1.758 0.723,0.402 1.485,0.605 2.286,0.605 0.937,0 1.66,-0.269 2.168,-0.812 0.511,-0.539 0.769,-1.305 0.769,-2.293 0,-0.215 -0.012,-0.453 -0.039,-0.715 -0.023,-0.254 -0.063,-0.512 -0.117,-0.781" /><g
       transform="matrix(1,0,0,-1,0,306.58249)"
       id="g724"><path
         id="path726"
         style="fill:none;stroke:#000000;stroke-width:2;stroke-linecap:butt;stroke-linejoin:miter;stroke-miterlimit:8;stroke-opacity:1;stroke-dasharray:none"
         d="m 61,70.75 78,0 0,12 -78,0 0,-12 z" /></g><path
       id="path728"
       style="fill:#000000;fill-opacity:1;fill-rule:nonzero;stroke:none"
       d="m 66.363,232.809 c -0.457,0 -0.801,-0.227 -1.031,-0.68 -0.23,-0.445 -0.344,-1.121 -0.344,-2.023 0,-0.902 0.114,-1.574 0.344,-2.027 0.23,-0.45 0.574,-0.672 1.031,-0.672 0.461,0 0.805,0.222 1.032,0.672 0.234,0.453 0.347,1.125 0.347,2.027 0,0.902 -0.113,1.578 -0.347,2.023 -0.227,0.453 -0.571,0.68 -1.032,0.68 m 0,0.703 c 0.735,0 1.297,-0.293 1.684,-0.875 0.391,-0.582 0.582,-1.426 0.582,-2.531 0,-1.106 -0.191,-1.949 -0.582,-2.531 -0.387,-0.582 -0.949,-0.871 -1.684,-0.871 -0.734,0 -1.297,0.289 -1.687,0.871 -0.387,0.582 -0.582,1.425 -0.582,2.531 0,1.105 0.195,1.949 0.582,2.531 0.39,0.582 0.953,0.875 1.687,0.875" /><path
       id="path730"
       style="fill:#000000;fill-opacity:1;fill-rule:nonzero;stroke:none"
       d="m 82.133,227.579 1.449,0 0,5.003 -1.578,-0.316 0,0.809 1.57,0.316 0.887,0 0,-5.812 1.449,0 0,-0.747 -3.777,0 0,0.747" /><path
       id="path732"
       style="fill:#000000;fill-opacity:1;fill-rule:nonzero;stroke:none"
       d="m 117.77,227.579 3.101,0 0,-0.747 -4.168,0 0,0.747 c 0.336,0.347 0.797,0.816 1.375,1.402 0.582,0.586 0.949,0.969 1.098,1.137 0.285,0.32 0.484,0.589 0.594,0.808 0.117,0.223 0.171,0.442 0.171,0.656 0,0.348 -0.121,0.633 -0.367,0.852 -0.246,0.219 -0.562,0.328 -0.953,0.328 -0.281,0 -0.574,-0.047 -0.887,-0.144 -0.304,-0.098 -0.636,-0.243 -0.988,-0.438 l 0,0.895 c 0.359,0.144 0.692,0.254 1.004,0.324 0.309,0.074 0.594,0.113 0.852,0.113 0.679,0 1.222,-0.172 1.625,-0.512 0.406,-0.339 0.609,-0.793 0.609,-1.363 0,-0.269 -0.055,-0.523 -0.156,-0.769 -0.098,-0.239 -0.282,-0.524 -0.547,-0.852 -0.074,-0.086 -0.309,-0.332 -0.699,-0.738 -0.395,-0.403 -0.95,-0.969 -1.664,-1.699" /><path
       id="path734"
       style="fill:#000000;fill-opacity:1;fill-rule:nonzero;stroke:none"
       d="m 134.707,230.368 c 0.426,-0.09 0.758,-0.278 0.992,-0.567 0.242,-0.285 0.363,-0.64 0.363,-1.062 0,-0.649 -0.222,-1.149 -0.667,-1.504 -0.446,-0.356 -1.079,-0.531 -1.899,-0.531 -0.277,0 -0.562,0.027 -0.855,0.082 -0.289,0.054 -0.59,0.132 -0.899,0.242 l 0,0.859 c 0.246,-0.144 0.516,-0.254 0.809,-0.328 0.293,-0.07 0.597,-0.109 0.918,-0.109 0.554,0 0.98,0.109 1.269,0.332 0.293,0.218 0.442,0.539 0.442,0.957 0,0.386 -0.137,0.687 -0.41,0.906 -0.27,0.219 -0.645,0.328 -1.129,0.328 l -0.766,0 0,0.731 0.801,0 c 0.437,0 0.769,0.086 1,0.257 0.234,0.176 0.347,0.43 0.347,0.758 0,0.336 -0.121,0.594 -0.359,0.774 -0.238,0.179 -0.578,0.269 -1.023,0.269 -0.243,0 -0.504,-0.023 -0.782,-0.078 -0.281,-0.051 -0.586,-0.133 -0.921,-0.246 l 0,0.793 c 0.339,0.094 0.652,0.164 0.945,0.211 0.297,0.047 0.574,0.07 0.836,0.07 0.676,0 1.207,-0.156 1.601,-0.465 0.391,-0.304 0.586,-0.715 0.586,-1.238 0,-0.363 -0.101,-0.672 -0.312,-0.922 -0.207,-0.25 -0.504,-0.422 -0.887,-0.519" /><g
       transform="matrix(1,0,0,-1,0,306.58249)"
       id="g736"><path
         id="path738"
         style="fill:none;stroke:#000000;stroke-width:2;stroke-linecap:butt;stroke-linejoin:miter;stroke-miterlimit:8;stroke-opacity:1;stroke-dasharray:none"
         d="m 169,70.75 78,0 0,12 -78,0 0,-12 z" /></g><path
       id="path740"
       style="fill:#000000;fill-opacity:1;fill-rule:nonzero;stroke:none"
       d="m 174.363,232.809 c -0.457,0 -0.801,-0.227 -1.031,-0.68 -0.23,-0.445 -0.344,-1.121 -0.344,-2.023 0,-0.902 0.114,-1.574 0.344,-2.027 0.23,-0.45 0.574,-0.672 1.031,-0.672 0.461,0 0.805,0.222 1.032,0.672 0.234,0.453 0.347,1.125 0.347,2.027 0,0.902 -0.113,1.578 -0.347,2.023 -0.227,0.453 -0.571,0.68 -1.032,0.68 m 0,0.703 c 0.735,0 1.297,-0.293 1.684,-0.875 0.391,-0.582 0.582,-1.426 0.582,-2.531 0,-1.106 -0.191,-1.949 -0.582,-2.531 -0.387,-0.582 -0.949,-0.871 -1.684,-0.871 -0.734,0 -1.297,0.289 -1.687,0.871 -0.387,0.582 -0.582,1.425 -0.582,2.531 0,1.105 0.195,1.949 0.582,2.531 0.39,0.582 0.953,0.875 1.687,0.875" /><path
       id="path742"
       style="fill:#000000;fill-opacity:1;fill-rule:nonzero;stroke:none"
       d="m 207.645,227.579 1.453,0 0,5.003 -1.578,-0.316 0,0.809 1.566,0.316 0.891,0 0,-5.812 1.449,0 0,-0.747 -3.781,0 0,0.747" /><path
       id="path744"
       style="fill:#000000;fill-opacity:1;fill-rule:nonzero;stroke:none"
       d="m 225.77,227.579 3.101,0 0,-0.747 -4.168,0 0,0.747 c 0.336,0.347 0.797,0.816 1.375,1.402 0.582,0.586 0.949,0.969 1.098,1.137 0.285,0.32 0.484,0.589 0.594,0.808 0.117,0.223 0.171,0.442 0.171,0.656 0,0.348 -0.121,0.633 -0.367,0.852 -0.246,0.219 -0.562,0.328 -0.953,0.328 -0.281,0 -0.574,-0.047 -0.887,-0.144 -0.304,-0.098 -0.636,-0.243 -0.988,-0.438 l 0,0.895 c 0.359,0.144 0.692,0.254 1.004,0.324 0.309,0.074 0.594,0.113 0.852,0.113 0.679,0 1.222,-0.172 1.625,-0.512 0.406,-0.339 0.609,-0.793 0.609,-1.363 0,-0.269 -0.055,-0.523 -0.156,-0.769 -0.098,-0.239 -0.282,-0.524 -0.547,-0.852 -0.074,-0.086 -0.309,-0.332 -0.699,-0.738 -0.395,-0.403 -0.95,-0.969 -1.664,-1.699" /><path
       id="path746"
       style="fill:#000000;fill-opacity:1;fill-rule:nonzero;stroke:none"
       d="m 242.707,230.368 c 0.426,-0.09 0.758,-0.278 0.992,-0.567 0.242,-0.285 0.363,-0.64 0.363,-1.062 0,-0.649 -0.222,-1.149 -0.667,-1.504 -0.446,-0.356 -1.079,-0.531 -1.899,-0.531 -0.277,0 -0.562,0.027 -0.855,0.082 -0.289,0.054 -0.59,0.132 -0.899,0.242 l 0,0.859 c 0.246,-0.144 0.516,-0.254 0.809,-0.328 0.293,-0.07 0.597,-0.109 0.918,-0.109 0.554,0 0.98,0.109 1.269,0.332 0.293,0.218 0.442,0.539 0.442,0.957 0,0.386 -0.137,0.687 -0.41,0.906 -0.27,0.219 -0.645,0.328 -1.129,0.328 l -0.766,0 0,0.731 0.801,0 c 0.437,0 0.769,0.086 1,0.257 0.234,0.176 0.347,0.43 0.347,0.758 0,0.336 -0.121,0.594 -0.359,0.774 -0.238,0.179 -0.578,0.269 -1.023,0.269 -0.243,0 -0.504,-0.023 -0.782,-0.078 -0.281,-0.051 -0.586,-0.133 -0.921,-0.246 l 0,0.793 c 0.339,0.094 0.652,0.164 0.945,0.211 0.297,0.047 0.574,0.07 0.836,0.07 0.676,0 1.207,-0.156 1.601,-0.465 0.391,-0.304 0.586,-0.715 0.586,-1.238 0,-0.363 -0.101,-0.672 -0.312,-0.922 -0.207,-0.25 -0.504,-0.422 -0.887,-0.519" /><g
       transform="matrix(1,0,0,-1,0,306.58249)"
       id="g748"><path
         id="path750"
         style="fill:none;stroke:#000000;stroke-width:2;stroke-linecap:butt;stroke-linejoin:miter;stroke-miterlimit:8;stroke-opacity:1;stroke-dasharray:none"
         d="m 259,70.75 78,0 0,12 -78,0 0,-12 z" /></g><path
       id="path752"
       style="fill:#000000;fill-opacity:1;fill-rule:nonzero;stroke:none"
       d="m 281.875,232.809 c -0.457,0 -0.801,-0.227 -1.031,-0.68 -0.227,-0.445 -0.344,-1.121 -0.344,-2.023 0,-0.902 0.117,-1.574 0.344,-2.027 0.23,-0.45 0.574,-0.672 1.031,-0.672 0.461,0 0.805,0.222 1.035,0.672 0.231,0.453 0.348,1.125 0.348,2.027 0,0.902 -0.117,1.578 -0.348,2.023 -0.23,0.453 -0.574,0.68 -1.035,0.68 m 0,0.703 c 0.738,0 1.297,-0.293 1.684,-0.875 0.39,-0.582 0.586,-1.426 0.586,-2.531 0,-1.106 -0.196,-1.949 -0.586,-2.531 -0.387,-0.582 -0.946,-0.871 -1.684,-0.871 -0.734,0 -1.297,0.289 -1.687,0.871 -0.387,0.582 -0.579,1.425 -0.579,2.531 0,1.105 0.192,1.949 0.579,2.531 0.39,0.582 0.953,0.875 1.687,0.875" /><path
       id="path754"
       style="fill:#000000;fill-opacity:1;fill-rule:nonzero;stroke:none"
       d="m 297.645,227.579 1.453,0 0,5.003 -1.578,-0.316 0,0.809 1.566,0.316 0.891,0 0,-5.812 1.449,0 0,-0.747 -3.781,0 0,0.747" /><path
       id="path756"
       style="fill:#000000;fill-opacity:1;fill-rule:nonzero;stroke:none"
       d="m 315.77,227.579 3.101,0 0,-0.747 -4.168,0 0,0.747 c 0.336,0.347 0.797,0.816 1.375,1.402 0.582,0.586 0.949,0.969 1.098,1.137 0.285,0.32 0.484,0.589 0.594,0.808 0.117,0.223 0.171,0.442 0.171,0.656 0,0.348 -0.121,0.633 -0.367,0.852 -0.246,0.219 -0.562,0.328 -0.953,0.328 -0.281,0 -0.574,-0.047 -0.887,-0.144 -0.304,-0.098 -0.636,-0.243 -0.988,-0.438 l 0,0.895 c 0.359,0.144 0.692,0.254 1.004,0.324 0.309,0.074 0.594,0.113 0.852,0.113 0.679,0 1.222,-0.172 1.625,-0.512 0.406,-0.339 0.609,-0.793 0.609,-1.363 0,-0.269 -0.055,-0.523 -0.156,-0.769 -0.098,-0.239 -0.282,-0.524 -0.547,-0.852 -0.074,-0.086 -0.309,-0.332 -0.699,-0.738 -0.395,-0.403 -0.95,-0.969 -1.664,-1.699" /><path
       id="path758"
       style="fill:#000000;fill-opacity:1;fill-rule:nonzero;stroke:none"
       d="m 332.707,230.368 c 0.426,-0.09 0.758,-0.278 0.992,-0.567 0.242,-0.285 0.363,-0.64 0.363,-1.062 0,-0.649 -0.222,-1.149 -0.667,-1.504 -0.446,-0.356 -1.079,-0.531 -1.899,-0.531 -0.277,0 -0.562,0.027 -0.855,0.082 -0.289,0.054 -0.59,0.132 -0.899,0.242 l 0,0.859 c 0.246,-0.144 0.516,-0.254 0.809,-0.328 0.293,-0.07 0.597,-0.109 0.918,-0.109 0.554,0 0.98,0.109 1.269,0.332 0.293,0.218 0.442,0.539 0.442,0.957 0,0.386 -0.137,0.687 -0.41,0.906 -0.27,0.219 -0.645,0.328 -1.129,0.328 l -0.766,0 0,0.731 0.801,0 c 0.437,0 0.769,0.086 1,0.257 0.234,0.176 0.347,0.43 0.347,0.758 0,0.336 -0.121,0.594 -0.359,0.774 -0.238,0.179 -0.578,0.269 -1.023,0.269 -0.243,0 -0.504,-0.023 -0.782,-0.078 -0.281,-0.051 -0.586,-0.133 -0.921,-0.246 l 0,0.793 c 0.339,0.094 0.652,0.164 0.945,0.211 0.297,0.047 0.574,0.07 0.836,0.07 0.676,0 1.207,-0.156 1.601,-0.465 0.391,-0.304 0.586,-0.715 0.586,-1.238 0,-0.363 -0.101,-0.672 -0.312,-0.922 -0.207,-0.25 -0.504,-0.422 -0.887,-0.519" /><g
       transform="matrix(1,0,0,-1,0,306.58249)"
       id="g760"><path
         id="path762"
         style="fill:none;stroke:#000000;stroke-width:2;stroke-linecap:butt;stroke-linejoin:miter;stroke-miterlimit:8;stroke-opacity:1;stroke-dasharray:none"
         d="m 349,70.75 78,0 0,12 -78,0 0,-12 z" /></g><path
       id="path764"
       style="fill:#000000;fill-opacity:1;fill-rule:nonzero;stroke:none"
       d="m 369.375,232.809 c -0.457,0 -0.801,-0.227 -1.031,-0.68 -0.231,-0.445 -0.344,-1.121 -0.344,-2.023 0,-0.902 0.113,-1.574 0.344,-2.027 0.23,-0.45 0.574,-0.672 1.031,-0.672 0.461,0 0.805,0.222 1.031,0.672 0.235,0.453 0.348,1.125 0.348,2.027 0,0.902 -0.113,1.578 -0.348,2.023 -0.226,0.453 -0.57,0.68 -1.031,0.68 m 0,0.703 c 0.734,0 1.297,-0.293 1.684,-0.875 0.39,-0.582 0.582,-1.426 0.582,-2.531 0,-1.106 -0.192,-1.949 -0.582,-2.531 -0.387,-0.582 -0.95,-0.871 -1.684,-0.871 -0.734,0 -1.297,0.289 -1.687,0.871 -0.387,0.582 -0.583,1.425 -0.583,2.531 0,1.105 0.196,1.949 0.583,2.531 0.39,0.582 0.953,0.875 1.687,0.875" /><path
       id="path766"
       style="fill:#000000;fill-opacity:1;fill-rule:nonzero;stroke:none"
       d="m 387.645,227.579 1.453,0 0,5.003 -1.578,-0.316 0,0.809 1.566,0.316 0.891,0 0,-5.812 1.449,0 0,-0.747 -3.781,0 0,0.747" /><path
       id="path768"
       style="fill:#000000;fill-opacity:1;fill-rule:nonzero;stroke:none"
       d="m 405.77,227.579 3.101,0 0,-0.747 -4.168,0 0,0.747 c 0.336,0.347 0.797,0.816 1.375,1.402 0.582,0.586 0.949,0.969 1.098,1.137 0.285,0.32 0.484,0.589 0.594,0.808 0.117,0.223 0.171,0.442 0.171,0.656 0,0.348 -0.121,0.633 -0.367,0.852 -0.246,0.219 -0.562,0.328 -0.953,0.328 -0.281,0 -0.574,-0.047 -0.887,-0.144 -0.304,-0.098 -0.636,-0.243 -0.988,-0.438 l 0,0.895 c 0.359,0.144 0.692,0.254 1.004,0.324 0.309,0.074 0.594,0.113 0.852,0.113 0.679,0 1.222,-0.172 1.625,-0.512 0.406,-0.339 0.609,-0.793 0.609,-1.363 0,-0.269 -0.055,-0.523 -0.156,-0.769 -0.098,-0.239 -0.282,-0.524 -0.547,-0.852 -0.074,-0.086 -0.309,-0.332 -0.699,-0.738 -0.395,-0.403 -0.95,-0.969 -1.664,-1.699" /><path
       id="path770"
       style="fill:#000000;fill-opacity:1;fill-rule:nonzero;stroke:none"
       d="m 422.707,230.368 c 0.426,-0.09 0.758,-0.278 0.992,-0.567 0.242,-0.285 0.363,-0.64 0.363,-1.062 0,-0.649 -0.222,-1.149 -0.667,-1.504 -0.446,-0.356 -1.079,-0.531 -1.899,-0.531 -0.277,0 -0.562,0.027 -0.855,0.082 -0.289,0.054 -0.59,0.132 -0.899,0.242 l 0,0.859 c 0.246,-0.144 0.516,-0.254 0.809,-0.328 0.293,-0.07 0.597,-0.109 0.918,-0.109 0.554,0 0.98,0.109 1.269,0.332 0.293,0.218 0.442,0.539 0.442,0.957 0,0.386 -0.137,0.687 -0.41,0.906 -0.27,0.219 -0.645,0.328 -1.129,0.328 l -0.766,0 0,0.731 0.801,0 c 0.437,0 0.769,0.086 1,0.257 0.234,0.176 0.347,0.43 0.347,0.758 0,0.336 -0.121,0.594 -0.359,0.774 -0.238,0.179 -0.578,0.269 -1.023,0.269 -0.243,0 -0.504,-0.023 -0.782,-0.078 -0.281,-0.051 -0.586,-0.133 -0.921,-0.246 l 0,0.793 c 0.339,0.094 0.652,0.164 0.945,0.211 0.297,0.047 0.574,0.07 0.836,0.07 0.676,0 1.207,-0.156 1.601,-0.465 0.391,-0.304 0.586,-0.715 0.586,-1.238 0,-0.363 -0.101,-0.672 -0.312,-0.922 -0.207,-0.25 -0.504,-0.422 -0.887,-0.519" /><g
       transform="matrix(1,0,0,-1,0,306.58249)"
       id="g772"><path
         id="path774"
         style="fill:none;stroke:#000000;stroke-width:2;stroke-linecap:butt;stroke-linejoin:miter;stroke-miterlimit:8;stroke-opacity:1;stroke-dasharray:none"
         d="m 439,70.75 78,0 0,12 -78,0 0,-12 z" /></g><path
       id="path776"
       style="fill:#000000;fill-opacity:1;fill-rule:nonzero;stroke:none"
       d="m 444.363,232.809 c -0.457,0 -0.801,-0.227 -1.031,-0.68 -0.23,-0.445 -0.344,-1.121 -0.344,-2.023 0,-0.902 0.114,-1.574 0.344,-2.027 0.23,-0.45 0.574,-0.672 1.031,-0.672 0.461,0 0.805,0.222 1.032,0.672 0.234,0.453 0.347,1.125 0.347,2.027 0,0.902 -0.113,1.578 -0.347,2.023 -0.227,0.453 -0.571,0.68 -1.032,0.68 m 0,0.703 c 0.735,0 1.297,-0.293 1.684,-0.875 0.391,-0.582 0.582,-1.426 0.582,-2.531 0,-1.106 -0.191,-1.949 -0.582,-2.531 -0.387,-0.582 -0.949,-0.871 -1.684,-0.871 -0.734,0 -1.297,0.289 -1.687,0.871 -0.387,0.582 -0.582,1.425 -0.582,2.531 0,1.105 0.195,1.949 0.582,2.531 0.39,0.582 0.953,0.875 1.687,0.875" /><path
       id="path778"
       style="fill:#000000;fill-opacity:1;fill-rule:nonzero;stroke:none"
       d="m 475.145,227.579 1.449,0 0,5.003 -1.578,-0.316 0,0.809 1.57,0.316 0.887,0 0,-5.812 1.449,0 0,-0.747 -3.777,0 0,0.747" /><path
       id="path780"
       style="fill:#000000;fill-opacity:1;fill-rule:nonzero;stroke:none"
       d="m 495.77,227.579 3.101,0 0,-0.747 -4.168,0 0,0.747 c 0.336,0.347 0.797,0.816 1.375,1.402 0.582,0.586 0.949,0.969 1.098,1.137 0.285,0.32 0.484,0.589 0.594,0.808 0.117,0.223 0.171,0.442 0.171,0.656 0,0.348 -0.121,0.633 -0.367,0.852 -0.246,0.219 -0.562,0.328 -0.953,0.328 -0.281,0 -0.574,-0.047 -0.887,-0.144 -0.304,-0.098 -0.636,-0.243 -0.988,-0.438 l 0,0.895 c 0.359,0.144 0.692,0.254 1.004,0.324 0.309,0.074 0.594,0.113 0.852,0.113 0.679,0 1.222,-0.172 1.625,-0.512 0.406,-0.339 0.609,-0.793 0.609,-1.363 0,-0.269 -0.055,-0.523 -0.156,-0.769 -0.098,-0.239 -0.282,-0.524 -0.547,-0.852 -0.074,-0.086 -0.309,-0.332 -0.699,-0.738 -0.395,-0.403 -0.95,-0.969 -1.664,-1.699" /><path
       id="path782"
       style="fill:#000000;fill-opacity:1;fill-rule:nonzero;stroke:none"
       d="m 512.707,230.368 c 0.426,-0.09 0.758,-0.278 0.992,-0.567 0.242,-0.285 0.363,-0.64 0.363,-1.062 0,-0.649 -0.222,-1.149 -0.667,-1.504 -0.446,-0.356 -1.079,-0.531 -1.899,-0.531 -0.277,0 -0.562,0.027 -0.855,0.082 -0.289,0.054 -0.59,0.132 -0.899,0.242 l 0,0.859 c 0.246,-0.144 0.516,-0.254 0.809,-0.328 0.293,-0.07 0.597,-0.109 0.918,-0.109 0.554,0 0.98,0.109 1.269,0.332 0.293,0.218 0.442,0.539 0.442,0.957 0,0.386 -0.137,0.687 -0.41,0.906 -0.27,0.219 -0.645,0.328 -1.129,0.328 l -0.766,0 0,0.731 0.801,0 c 0.437,0 0.769,0.086 1,0.257 0.234,0.176 0.347,0.43 0.347,0.758 0,0.336 -0.121,0.594 -0.359,0.774 -0.238,0.179 -0.578,0.269 -1.023,0.269 -0.243,0 -0.504,-0.023 -0.782,-0.078 -0.281,-0.051 -0.586,-0.133 -0.921,-0.246 l 0,0.793 c 0.339,0.094 0.652,0.164 0.945,0.211 0.297,0.047 0.574,0.07 0.836,0.07 0.676,0 1.207,-0.156 1.601,-0.465 0.391,-0.304 0.586,-0.715 0.586,-1.238 0,-0.363 -0.101,-0.672 -0.312,-0.922 -0.207,-0.25 -0.504,-0.422 -0.887,-0.519" /><g
       transform="matrix(1,0,0,-1,0,306.58249)"
       id="g784"><path
         id="path786"
         style="fill:none;stroke:#000000;stroke-width:2;stroke-linecap:butt;stroke-linejoin:miter;stroke-miterlimit:8;stroke-opacity:1;stroke-dasharray:none"
         d="m 97,136.75 384,0 0,12 -384,0 0,-12 z" /></g><path
       id="path788"
       style="fill:#000000;fill-opacity:1;fill-rule:nonzero;stroke:none"
       d="m 102.363,166.809 c -0.457,0 -0.801,-0.227 -1.031,-0.68 -0.23,-0.445 -0.344,-1.121 -0.344,-2.023 0,-0.902 0.114,-1.574 0.344,-2.027 0.23,-0.45 0.574,-0.672 1.031,-0.672 0.461,0 0.805,0.222 1.032,0.672 0.234,0.453 0.347,1.125 0.347,2.027 0,0.902 -0.113,1.578 -0.347,2.023 -0.227,0.453 -0.571,0.68 -1.032,0.68 m 0,0.703 c 0.735,0 1.297,-0.293 1.684,-0.875 0.391,-0.582 0.582,-1.426 0.582,-2.531 0,-1.106 -0.191,-1.949 -0.582,-2.531 -0.387,-0.582 -0.949,-0.871 -1.684,-0.871 -0.734,0 -1.297,0.289 -1.687,0.871 -0.387,0.582 -0.582,1.425 -0.582,2.531 0,1.105 0.195,1.949 0.582,2.531 0.39,0.582 0.953,0.875 1.687,0.875" /><path
       id="path790"
       style="fill:#000000;fill-opacity:1;fill-rule:nonzero;stroke:none"
       d="m 205.227,161.579 1.449,0 0,5.003 -1.578,-0.316 0,0.809 1.57,0.316 0.887,0 0,-5.812 1.449,0 0,-0.747 -3.777,0 0,0.747" /><path
       id="path792"
       style="fill:#000000;fill-opacity:1;fill-rule:nonzero;stroke:none"
       d="m 297.203,161.579 3.098,0 0,-0.747 -4.164,0 0,0.747 c 0.336,0.347 0.793,0.816 1.375,1.402 0.582,0.586 0.949,0.969 1.097,1.137 0.286,0.32 0.485,0.589 0.594,0.808 0.113,0.223 0.172,0.442 0.172,0.656 0,0.348 -0.125,0.633 -0.371,0.852 -0.242,0.219 -0.559,0.328 -0.953,0.328 -0.278,0 -0.571,-0.047 -0.883,-0.144 -0.309,-0.098 -0.637,-0.243 -0.988,-0.438 l 0,0.895 c 0.359,0.144 0.691,0.254 1.004,0.324 0.308,0.074 0.593,0.113 0.851,0.113 0.68,0 1.223,-0.172 1.625,-0.512 0.406,-0.339 0.606,-0.793 0.606,-1.363 0,-0.269 -0.051,-0.523 -0.153,-0.769 -0.101,-0.239 -0.281,-0.524 -0.551,-0.852 -0.07,-0.086 -0.304,-0.332 -0.699,-0.738 -0.39,-0.403 -0.945,-0.969 -1.66,-1.699" /><path
       id="path794"
       style="fill:#000000;fill-opacity:1;fill-rule:nonzero;stroke:none"
       d="m 387.832,164.368 c 0.426,-0.09 0.758,-0.278 0.992,-0.567 0.242,-0.285 0.364,-0.64 0.364,-1.062 0,-0.649 -0.223,-1.149 -0.668,-1.504 -0.446,-0.356 -1.079,-0.531 -1.899,-0.531 -0.277,0 -0.562,0.027 -0.855,0.082 -0.289,0.054 -0.59,0.132 -0.899,0.242 l 0,0.859 c 0.246,-0.144 0.516,-0.254 0.809,-0.328 0.293,-0.07 0.597,-0.109 0.918,-0.109 0.554,0 0.98,0.109 1.269,0.332 0.293,0.218 0.442,0.539 0.442,0.957 0,0.386 -0.137,0.687 -0.41,0.906 -0.27,0.219 -0.645,0.328 -1.129,0.328 l -0.766,0 0,0.731 0.801,0 c 0.437,0 0.769,0.086 1,0.257 0.234,0.176 0.347,0.43 0.347,0.758 0,0.336 -0.121,0.594 -0.359,0.774 -0.238,0.179 -0.578,0.269 -1.023,0.269 -0.243,0 -0.504,-0.023 -0.782,-0.078 -0.281,-0.051 -0.586,-0.133 -0.922,-0.246 l 0,0.793 c 0.34,0.094 0.653,0.164 0.946,0.211 0.297,0.047 0.574,0.07 0.836,0.07 0.676,0 1.207,-0.156 1.601,-0.465 0.391,-0.304 0.586,-0.715 0.586,-1.238 0,-0.363 -0.101,-0.672 -0.312,-0.922 -0.207,-0.25 -0.504,-0.422 -0.887,-0.519" /><path
       id="path796"
       style="fill:#000000;fill-opacity:1;fill-rule:nonzero;stroke:none"
       d="m 476.125,166.618 -2.242,-3.5 2.242,0 0,3.5 m -0.234,0.773 1.117,0 0,-4.273 0.937,0 0,-0.739 -0.937,0 0,-1.547 -0.883,0 0,1.547 -2.961,0 0,0.856 2.727,4.156" /><g
       transform="matrix(1,0,0,-1,0,306.58249)"
       id="g798"><path
         id="path800"
         style="fill:none;stroke:#000000;stroke-width:2;stroke-linecap:butt;stroke-linejoin:miter;stroke-miterlimit:8;stroke-opacity:1;stroke-dasharray:none"
         d="m 460,28.75 0,-18 85,0 0,15" /></g><path
       id="path802"
       style="fill:#000000;fill-opacity:1;fill-rule:evenodd;stroke:none"
       d="m 547,283.832 -2,-6 -2,6 4,0 z" /><g
       transform="matrix(1,0,0,-1,0,306.58249)"
       id="g804"><path
         id="path806"
         style="fill:none;stroke:#000000;stroke-width:2;stroke-linecap:butt;stroke-linejoin:round;stroke-miterlimit:10;stroke-opacity:1;stroke-dasharray:none"
         d="m 316,47.75 0.324,18.629" /></g><path
       id="path808"
       style="fill:#000000;fill-opacity:1;fill-rule:evenodd;stroke:none"
       d="m 318.27,243.239 -1.895,-6.032 -2.105,5.965 4,0.067 z" /><g
       transform="matrix(1,0,0,-1,0,306.58249)"
       id="g810"><path
         id="path812"
         style="fill:none;stroke:#000000;stroke-width:2;stroke-linecap:butt;stroke-linejoin:miter;stroke-miterlimit:8;stroke-opacity:1;stroke-dasharray:none"
         d="m 154,28.75 0,-18 391,0 0,15" /></g><path
       id="path814"
       style="fill:#000000;fill-opacity:1;fill-rule:evenodd;stroke:none"
       d="m 547,283.832 -2,-6 -2,6 4,0 z" /><g
       transform="matrix(1,0,0,-1,0,306.58249)"
       id="g816"><path
         id="path818"
         style="fill:none;stroke:#000000;stroke-width:2;stroke-linecap:butt;stroke-linejoin:miter;stroke-miterlimit:8;stroke-opacity:1;stroke-dasharray:none"
         d="m 19,28.75 18,0 0,18 -18,0 0,-18 z" /></g><path
       id="path820"
       style="fill:#000000;fill-opacity:1;fill-rule:nonzero;stroke:none"
       d="m 25.789,272.399 5.031,0 0,-1.078 -3.859,0 0,-2.324 c 0.187,0.062 0.375,0.109 0.559,0.14 0.187,0.035 0.375,0.051 0.558,0.051 1.059,0 1.899,-0.289 2.516,-0.871 0.617,-0.578 0.926,-1.363 0.926,-2.356 0,-1.019 -0.317,-1.812 -0.954,-2.379 -0.632,-0.562 -1.527,-0.843 -2.683,-0.843 -0.399,0 -0.805,0.035 -1.219,0.101 -0.41,0.067 -0.836,0.168 -1.277,0.305 l 0,1.289 c 0.383,-0.207 0.777,-0.363 1.183,-0.465 0.407,-0.101 0.836,-0.152 1.285,-0.152 0.735,0 1.313,0.191 1.743,0.578 0.425,0.387 0.64,0.906 0.64,1.566 0,0.661 -0.215,1.184 -0.64,1.571 -0.43,0.383 -1.008,0.578 -1.743,0.578 -0.339,0 -0.683,-0.039 -1.027,-0.117 -0.336,-0.075 -0.683,-0.192 -1.039,-0.356 l 0,4.762" /><g
       transform="matrix(1,0,0,-1,0,306.58249)"
       id="g822"><path
         id="path824"
         style="fill:none;stroke:#000000;stroke-width:2;stroke-linecap:butt;stroke-linejoin:miter;stroke-miterlimit:8;stroke-opacity:1;stroke-dasharray:none"
         d="m 37,28.75 18,0 0,18 -18,0 0,-18 z" /></g><path
       id="path826"
       style="fill:#000000;fill-opacity:1;fill-rule:nonzero;stroke:none"
       d="m 43.812,263.118 0,1.168 c 0.325,-0.153 0.649,-0.266 0.977,-0.348 0.332,-0.082 0.656,-0.121 0.973,-0.121 0.847,0 1.492,0.285 1.937,0.851 0.449,0.571 0.703,1.438 0.766,2.598 -0.246,-0.367 -0.555,-0.644 -0.934,-0.84 -0.375,-0.195 -0.793,-0.293 -1.25,-0.293 -0.945,0 -1.699,0.285 -2.254,0.86 -0.547,0.574 -0.824,1.359 -0.824,2.355 0,0.973 0.289,1.754 0.863,2.34 0.579,0.59 1.344,0.883 2.297,0.883 1.098,0 1.934,-0.422 2.508,-1.262 0.582,-0.84 0.871,-2.059 0.871,-3.656 0,-1.496 -0.355,-2.688 -1.066,-3.582 -0.707,-0.887 -1.66,-1.332 -2.856,-1.332 -0.324,0 -0.648,0.031 -0.98,0.093 -0.328,0.067 -0.672,0.161 -1.028,0.286 m 2.551,4.019 c 0.578,0 1.032,0.195 1.367,0.59 0.336,0.395 0.508,0.934 0.508,1.621 0,0.68 -0.172,1.219 -0.508,1.609 -0.335,0.399 -0.789,0.598 -1.367,0.598 -0.574,0 -1.031,-0.199 -1.371,-0.598 -0.332,-0.39 -0.5,-0.929 -0.5,-1.609 0,-0.687 0.168,-1.226 0.5,-1.621 0.34,-0.395 0.797,-0.59 1.371,-0.59" /><g
       transform="matrix(1,0,0,-1,0,306.58249)"
       id="g828"><path
         id="path830"
         style="fill:none;stroke:#000000;stroke-width:2;stroke-linecap:butt;stroke-linejoin:miter;stroke-miterlimit:8;stroke-opacity:1;stroke-dasharray:none"
         d="m 46,28.75 0,-18 499,0 0,15" /></g><path
       id="path832"
       style="fill:#000000;fill-opacity:1;fill-rule:evenodd;stroke:none"
       d="m 547,283.832 -2,-6 -2,6 4,0 z" /><g
       transform="matrix(1,0,0,-1,0,306.58249)"
       id="g834"><path
         id="path836"
         style="fill:none;stroke:#000000;stroke-width:2;stroke-linecap:butt;stroke-linejoin:miter;stroke-miterlimit:8;stroke-opacity:1;stroke-dasharray:none"
         d="m 28,28.75 0,-18 517,0 0,15" /></g><path
       id="path838"
       style="fill:#000000;fill-opacity:1;fill-rule:evenodd;stroke:none"
       d="m 547,283.832 -2,-6 -2,6 4,0 z" /><text
       xml:space="preserve"
       style="font-size:22.39999962px;font-style:normal;font-variant:normal;font-weight:normal;font-stretch:normal;text-align:start;line-height:100%;writing-mode:lr-tb;text-anchor:start;fill:#000000;fill-opacity:1;stroke:none;font-family:DejaVu Serif;-inkscape-font-specification:DejaVu Serif"
       x="234.95753"
       y="-128.33278"
       id="text4056"
       transform="scale(1,-1)"
       sodipodi:linespacing="100%"><tspan
         sodipodi:role="line"
         id="tspan4058"
         x="234.95753"
         y="-128.33278">Final filter</tspan></text>
<text
       xml:space="preserve"
       style="font-size:14.39999962px;font-style:oblique;font-variant:normal;font-weight:normal;font-stretch:normal;text-align:start;line-height:125%;writing-mode:lr-tb;text-anchor:start;fill:#000000;fill-opacity:1;stroke:none;font-family:DejaVu Sans;-inkscape-font-specification:DejaVu Sans Oblique"
       x="203.03397"
       y="-191.96712"
       id="text4060"
       transform="scale(1,-1)"
       sodipodi:linespacing="125%"><tspan
         sodipodi:role="line"
         id="tspan4062"
         x="203.03397"
         y="-191.96712">1</tspan></text>
<text
       xml:space="preserve"
       style="font-size:14.39999962px;font-style:oblique;font-variant:normal;font-weight:normal;font-stretch:normal;text-align:start;line-height:125%;writing-mode:lr-tb;text-anchor:start;fill:#000000;fill-opacity:1;stroke:none;font-family:DejaVu Sans;-inkscape-font-specification:DejaVu Sans Oblique"
       x="293.25952"
       y="-192.03888"
       id="text4060-8"
       sodipodi:linespacing="125%"
       transform="scale(1,-1)"><tspan
         sodipodi:role="line"
         id="tspan4093"
         x="293.25952"
         y="-192.03888">2</tspan></text>
<text
       xml:space="preserve"
       style="font-size:14.39999962px;font-style:oblique;font-variant:normal;font-weight:normal;font-stretch:normal;text-align:start;line-height:125%;writing-mode:lr-tb;text-anchor:start;fill:#000000;fill-opacity:1;stroke:none;font-family:DejaVu Sans;-inkscape-font-specification:DejaVu Sans Oblique"
       x="383.17691"
       y="-192.58243"
       id="text4060-8-5"
       sodipodi:linespacing="125%"
       transform="scale(1,-1)"><tspan
         sodipodi:role="line"
         id="tspan4120"
         x="383.17691"
         y="-192.58243">3</tspan></text>
<text
       xml:space="preserve"
       style="font-size:14.39999962px;font-style:oblique;font-variant:normal;font-weight:normal;font-stretch:normal;text-align:start;line-height:125%;writing-mode:lr-tb;text-anchor:start;fill:#000000;fill-opacity:1;stroke:none;font-family:DejaVu Sans;-inkscape-font-specification:DejaVu Sans Oblique"
       x="94.907692"
       y="-191.82605"
       id="text4060-3"
       sodipodi:linespacing="125%"
       transform="scale(1,-1)"><tspan
         sodipodi:role="line"
         id="tspan4147"
         x="94.907692"
         y="-191.82605">0</tspan></text>
<text
       xml:space="preserve"
       style="font-size:14.4px;font-style:oblique;font-variant:normal;font-weight:normal;font-stretch:normal;text-align:start;line-height:125%;writing-mode:lr;text-anchor:start;fill:#000000;fill-opacity:1;stroke:none;font-family:DejaVu Sans;-inkscape-font-specification:DejaVu Sans Oblique"
       x="473.18024"
       y="-191.33473"
       id="text4060-8-1"
       sodipodi:linespacing="125%"
       transform="scale(1,-1)"><tspan
         sodipodi:role="line"
         id="tspan4176">4</tspan></text>
</g></svg>