<?xml version="1.0" encoding="UTF-8" standalone="no"?>
<!-- Created with Inkscape (http://www.inkscape.org/) -->
<svg
   xmlns:dc="http://purl.org/dc/elements/1.1/"
   xmlns:cc="http://creativecommons.org/ns#"
   xmlns:rdf="http://www.w3.org/1999/02/22-rdf-syntax-ns#"
   xmlns:svg="http://www.w3.org/2000/svg"
   xmlns="http://www.w3.org/2000/svg"
   xmlns:sodipodi="http://sodipodi.sourceforge.net/DTD/sodipodi-0.dtd"
   xmlns:inkscape="http://www.inkscape.org/namespaces/inkscape"
   id="svg2"
   sodipodi:version="0.32"
   inkscape:version="0.46"
   width="684.77856"
   height="439.04059"
   xml:space="preserve"
   sodipodi:docname="stream_cipher.svg"
   version="1.0"
   inkscape:output_extension="org.inkscape.output.svg.inkscape"><metadata
     id="metadata7"><rdf:RDF><cc:Work
         rdf:about=""><dc:format>image/svg+xml</dc:format><dc:type
           rdf:resource="http://purl.org/dc/dcmitype/StillImage" /></cc:Work></rdf:RDF></metadata><defs
     id="defs5"><inkscape:perspective
   sodipodi:type="inkscape:persp3d"
   inkscape:vp_x="0 : 526.18109 : 1"
   inkscape:vp_y="0 : 1000 : 0"
   inkscape:vp_z="744.09448 : 526.18109 : 1"
   inkscape:persp3d-origin="372.04724 : 350.78739 : 1"
   id="perspective9" />



</defs><sodipodi:namedview
     inkscape:window-height="740"
     inkscape:window-width="1280"
     inkscape:pageshadow="2"
     inkscape:pageopacity="0.0"
     guidetolerance="10.0"
     gridtolerance="10.0"
     objecttolerance="10.0"
     borderopacity="1.0"
     bordercolor="#666666"
     pagecolor="#ffffff"
     id="base"
     showgrid="false"
     inkscape:zoom="6.3053809"
     inkscape:cx="607.18954"
     inkscape:cy="313.29966"
     inkscape:window-x="-5"
     inkscape:window-y="-3"
     inkscape:current-layer="g11" /><g
     id="g11"
     inkscape:groupmode="layer"
     inkscape:label="Grain_p2"
     transform="matrix(1.25,0,0,-1.25,-34.366567,969.80582)"><g
   id="g6457"
   transform="matrix(0.9951641,0,0,0.9799349,-16.117128,-2.4249122)"><rect
   ry="20.328268"
   transform="scale(1,-1)"
   y="-785.85663"
   x="70.742004"
   height="45.410229"
   width="170.87163"
   id="rect5681"
   style="opacity:1;fill:none;fill-opacity:1;stroke:#0835be;stroke-width:3.26282573;stroke-miterlimit:4;stroke-dasharray:none;stroke-opacity:1" /><text
   transform="scale(1,-1)"
   sodipodi:linespacing="125%"
   id="text5683"
   y="-751.9032"
   x="89.120865"
   style="font-size:28.79999924px;font-style:normal;font-variant:normal;font-weight:normal;font-stretch:normal;text-align:start;line-height:125%;writing-mode:lr-tb;text-anchor:start;fill:#000000;fill-opacity:1;stroke:none;stroke-width:1px;stroke-linecap:butt;stroke-linejoin:miter;stroke-opacity:1;font-family:DejaVu Sans;-inkscape-font-specification:DejaVu Sans"
   xml:space="preserve"><tspan
     y="-751.9032"
     x="89.120865"
     id="tspan5685"
     sodipodi:role="line">feedback</tspan></text>


</g><g
   id="g3358"><path
     style="fill:#258524;fill-opacity:1;stroke:none;stroke-width:4.5999999;stroke-miterlimit:4;stroke-dasharray:none;stroke-opacity:1"
     d="M 52.400558,748.89081 C 50.229554,738.72165 44.654008,729.64912 42.641241,719.41832 C 39.040401,705.22876 37.799149,690.37335 38.877059,675.81745 C 41.089599,669.18677 48.914214,669.68849 54.566828,669.92341 C 60.858293,669.66125 67.210142,670.09707 73.201296,672.12686 C 76.681218,672.50082 84.379483,674.59958 85.452209,672.01126 C 81.560739,669.68325 78.864869,664.02274 73.98858,664.46811 C 66.728996,664.8417 59.947951,661.49699 52.79665,661.40265 C 45.872354,661.41668 38.532045,660.45137 31.963191,663.03043 C 26.083033,667.30805 27.698373,675.52652 27.690922,681.8414 C 28.426424,700.85504 32.089343,719.90234 39.845557,737.32504 C 39.536416,742.92682 44.994929,744.54517 48.927768,746.90184 C 50.085365,747.56483 51.242964,748.22782 52.400558,748.89081 z"
     id="path6489" /><path
     style="fill:#258524;fill-opacity:1;stroke:none;stroke-width:4.5999999;stroke-miterlimit:4;stroke-dasharray:none;stroke-opacity:1"
     d="M 87.563179,671.10822 C 83.609289,667.94261 79.545926,664.71782 74.88055,662.67422 C 76.836153,664.01488 86.094239,670.16175 80.527262,665.70627 C 72.605921,658.67363 68.179803,648.84402 62.159934,640.33082 C 58.813964,637.89587 53.786796,635.23322 50.349469,634.46358 C 58.535504,644.63809 63.511258,657.90461 75.035911,665.09207 C 76.908718,666.4191 83.065173,670.83418 82.140884,669.94455 C 80.233096,668.49246 72.897071,664.1535 78.598761,667.02341 C 81.586897,668.38502 84.575048,669.74663 87.563179,671.10822 z"
     id="path6491" /><path
     style="fill:#258524;fill-opacity:1;stroke:none;stroke-width:4.5999999;stroke-miterlimit:4;stroke-dasharray:none;stroke-opacity:1"
     d="M 75.232697,666.5874 C 67.692737,669.63544 62.314178,676.7444 60.681505,684.62276 C 58.752795,689.78522 54.786084,697.47882 62.858847,699.18297 C 67.817833,703.75667 66.534035,693.77873 68.63181,690.77862 C 70.751797,685.26728 72.096346,678.59738 77.773078,675.57604 C 80.342206,674.09637 84.644726,671.84696 79.773573,670.01196 C 78.259948,668.87044 76.746319,667.72891 75.232697,666.5874 z"
     id="path6493" /></g><g
   id="g6503"
   transform="matrix(-1.0173062,0,0,-0.7814594,311.18829,1270.9553)"><path
     d="M 52.400559,748.89078 C 51.743559,744.98457 50.33464,741.34132 48.863135,737.78561 C 45.848037,731.0643 43.73365,723.88984 41.943229,716.60648 C 39.860406,708.12336 39.043972,699.34684 38.586776,690.56376 C 38.37956,685.14356 38.08834,679.64957 39.479949,674.41663 C 40.885214,670.81829 43.921881,670.46506 46.915042,670.10435 C 50.872235,669.80545 54.842102,669.88419 58.804496,669.95447 C 61.673537,670.04674 64.532543,669.80553 67.342259,670.58103 C 70.069981,671.44966 72.818068,672.13742 75.613993,672.61111 C 78.519185,673.01386 81.446792,673.07609 84.368265,673.13621 C 85.977826,673.15898 85.173181,673.15329 86.782208,673.15329 L 76.583568,664.39599 C 74.984887,664.38463 75.779896,664.38941 74.198557,664.38159 C 71.324364,664.33862 68.442384,664.24079 65.595065,663.73528 C 62.801916,663.19567 60.079594,662.32095 57.312362,661.63167 C 54.472437,661.13969 51.604138,661.34084 48.741136,661.30586 C 44.750305,661.31027 40.751888,661.24034 36.769919,661.61056 C 33.07251,662.1861 30.201643,662.98545 28.555611,667.35 C 28.09118,669.17106 27.843921,669.84929 27.668381,671.79108 C 27.29578,675.91266 27.702395,680.0871 27.842828,684.20488 C 28.389827,693.0707 29.245572,701.9234 31.155208,710.54493 C 32.806313,717.83095 34.833792,724.99219 37.666849,731.76939 C 38.972562,735.12932 40.523095,738.58501 40.886546,742.29637 L 52.400559,748.89078 z"
     id="path6505"
     style="fill:#258524;fill-opacity:1;stroke:none;stroke-width:4.5999999;stroke-miterlimit:4;stroke-dasharray:none;stroke-opacity:1" /><path
     d="M 87.563178,671.10821 C 80.702237,665.02926 63.890666,656.08171 83.460144,668.16934 C 84.201987,668.62756 82.085255,667.03988 81.417214,666.44397 C 79.624072,664.84443 78.753339,663.92414 77.04622,662.21454 C 73.049582,657.76962 69.777166,652.52305 66.689279,647.18827 C 65.185738,644.43407 63.390874,641.9336 61.538711,639.5033 L 49.971939,633.78038 C 51.90032,636.18699 53.78262,638.65303 55.395643,641.3721 C 58.545103,646.79045 61.934405,652.04551 65.767844,656.81707 C 67.637013,658.72563 69.841874,661.32599 71.931397,662.84951 C 83.341647,671.16899 91.452216,676.2015 74.884538,665.04669 C 74.615749,664.86571 75.390832,665.4669 75.64397,665.677 L 87.563178,671.10821 z"
     id="path6507"
     style="fill:#258524;fill-opacity:1;stroke:none;stroke-width:4.5999999;stroke-miterlimit:4;stroke-dasharray:none;stroke-opacity:1" /><path
     d="M 75.232693,666.58739 C 72.655975,667.61814 70.379434,669.28519 68.221602,671.08389 C 66.234243,673.01394 64.383609,675.02298 63.182595,677.6175 C 62.274575,679.60945 61.653324,681.72502 60.902653,683.78545 C 60.099599,686.00498 59.372449,688.23902 58.710362,690.51121 C 58.144164,692.28039 57.862053,694.13505 57.28167,695.89841 L 65.869538,700.95605 C 66.323607,699.13902 66.691337,697.30381 67.164078,695.49281 C 67.813508,693.24495 68.546698,691.04906 69.36301,688.86443 C 70.135361,686.83584 70.663399,684.71 71.570517,682.73783 C 72.656596,680.27121 74.424919,678.38242 76.285681,676.55814 C 78.392775,674.86903 80.629045,673.14589 83.275527,672.65301 L 75.232693,666.58739 z"
     id="path6509"
     style="fill:#258524;fill-opacity:1;stroke:none;stroke-width:4.5999999;stroke-miterlimit:4;stroke-dasharray:none;stroke-opacity:1" /></g><g
   id="g6539"
   transform="matrix(0.9951641,0,0,0.9799349,277.54308,-2.2619623)"><rect
   ry="20.328268"
   transform="scale(1,-1)"
   y="-785.85663"
   x="70.742004"
   height="45.410229"
   width="170.87163"
   id="rect6541"
   style="opacity:1;fill:none;fill-opacity:1;stroke:#0835be;stroke-width:3.26282573;stroke-miterlimit:4;stroke-dasharray:none;stroke-opacity:1" /><text
   transform="scale(1,-1)"
   sodipodi:linespacing="125%"
   id="text6543"
   y="-751.9032"
   x="89.120865"
   style="font-size:28.79999924px;font-style:normal;font-variant:normal;font-weight:normal;font-stretch:normal;text-align:start;line-height:125%;writing-mode:lr-tb;text-anchor:start;fill:#000000;fill-opacity:1;stroke:none;stroke-width:1px;stroke-linecap:butt;stroke-linejoin:miter;stroke-opacity:1;font-family:DejaVu Sans;-inkscape-font-specification:DejaVu Sans"
   xml:space="preserve"><tspan
     y="-751.9032"
     x="89.120865"
     id="tspan6545"
     sodipodi:role="line">feedback</tspan></text>


</g><g
   id="g6547"
   transform="translate(293.66021,0.1629499)"><path
     style="fill:#258524;fill-opacity:1;stroke:none;stroke-width:4.5999999;stroke-miterlimit:4;stroke-dasharray:none;stroke-opacity:1"
     d="M 52.400558,748.89081 C 50.229554,738.72165 44.654008,729.64912 42.641241,719.41832 C 39.040401,705.22876 37.799149,690.37335 38.877059,675.81745 C 41.089599,669.18677 48.914214,669.68849 54.566828,669.92341 C 60.858293,669.66125 67.210142,670.09707 73.201296,672.12686 C 76.681218,672.50082 84.379483,674.59958 85.452209,672.01126 C 81.560739,669.68325 78.864869,664.02274 73.98858,664.46811 C 66.728996,664.8417 59.947951,661.49699 52.79665,661.40265 C 45.872354,661.41668 38.532045,660.45137 31.963191,663.03043 C 26.083033,667.30805 27.698373,675.52652 27.690922,681.8414 C 28.426424,700.85504 32.089343,719.90234 39.845557,737.32504 C 39.536416,742.92682 44.994929,744.54517 48.927768,746.90184 C 50.085365,747.56483 51.242964,748.22782 52.400558,748.89081 z"
     id="path6549" /><path
     style="fill:#258524;fill-opacity:1;stroke:none;stroke-width:4.5999999;stroke-miterlimit:4;stroke-dasharray:none;stroke-opacity:1"
     d="M 87.563179,671.10822 C 83.609289,667.94261 79.545926,664.71782 74.88055,662.67422 C 76.836153,664.01488 86.094239,670.16175 80.527262,665.70627 C 72.605921,658.67363 68.179803,648.84402 62.159934,640.33082 C 58.813964,637.89587 53.786796,635.23322 50.349469,634.46358 C 58.535504,644.63809 63.511258,657.90461 75.035911,665.09207 C 76.908718,666.4191 83.065173,670.83418 82.140884,669.94455 C 80.233096,668.49246 72.897071,664.1535 78.598761,667.02341 C 81.586897,668.38502 84.575048,669.74663 87.563179,671.10822 z"
     id="path6551" /><path
     style="fill:#258524;fill-opacity:1;stroke:none;stroke-width:4.5999999;stroke-miterlimit:4;stroke-dasharray:none;stroke-opacity:1"
     d="M 75.232697,666.5874 C 67.692737,669.63544 62.314178,676.7444 60.681505,684.62276 C 58.752795,689.78522 54.786084,697.47882 62.858847,699.18297 C 67.817833,703.75667 66.534035,693.77873 68.63181,690.77862 C 70.751797,685.26728 72.096346,678.59738 77.773078,675.57604 C 80.342206,674.09637 84.644726,671.84696 79.773573,670.01196 C 78.259948,668.87044 76.746319,667.72891 75.232697,666.5874 z"
     id="path6553" /></g><g
   id="g3353"><rect
   ry="20.207563"
   transform="scale(1,-1)"
   y="-554.71576"
   x="247.05876"
   height="45.140594"
   width="107.5235"
   id="rect6596"
   style="fill:none;fill-opacity:1;stroke:#0835be;stroke-width:2.58058047;stroke-miterlimit:4;stroke-dasharray:none;stroke-opacity:1" /><text
   transform="scale(1.0077406,-0.9923189)"
   sodipodi:linespacing="125%"
   id="text6598"
   y="-526.70966"
   x="266.68726"
   style="font-size:28.44057846px;font-style:normal;font-variant:normal;font-weight:normal;font-stretch:normal;text-align:start;line-height:125%;writing-mode:lr-tb;text-anchor:start;fill:#000000;fill-opacity:1;stroke:none;stroke-width:1px;stroke-linecap:butt;stroke-linejoin:miter;stroke-opacity:1;font-family:DejaVu Sans;-inkscape-font-specification:DejaVu Sans"
   xml:space="preserve"><tspan
     y="-526.70966"
     x="266.68726"
     id="tspan6600"
     sodipodi:role="line">filter</tspan></text>

</g><path
   style="fill:#258524;fill-opacity:1;stroke:none;stroke-width:4.5999999;stroke-miterlimit:4;stroke-dasharray:none;stroke-opacity:1"
   d="M 341.14263,564.78465 C 337.42782,565.24696 341.95945,568.69389 343.35962,569.40934 C 360.46385,578.64746 370.07754,595.925 385.27216,607.41705 C 400.88442,620.73898 417.10579,633.53064 435.93557,642.18398 C 439.55607,643.08807 441.94285,649.5981 445.59491,645.81347 C 448.95413,644.37178 453.00037,642.32838 447.79309,640.54607 C 432.87749,633.52302 418.14274,625.91267 405.76501,615.01528 C 392.12158,603.95853 379.63004,591.74139 368.37928,578.59177 C 362.75349,571.54769 353.20619,568.52012 347.99513,561.2519 C 345.71097,562.42948 343.4268,563.60707 341.14263,564.78465 z"
   id="path6663" /><path
   style="fill:#258524;fill-opacity:1;stroke:none;stroke-width:4.5999999;stroke-miterlimit:4;stroke-dasharray:none;stroke-opacity:1"
   d="M 338.95462,557.04138 C 343.25764,558.99991 350.26246,563.0912 352.06018,564.81973 C 349.34659,563.18099 339.26327,557.3232 347.17667,561.19969 C 356.37648,565.60622 366.91114,564.88017 376.4855,567.57012 C 379.89152,570.11698 383.29753,572.66384 386.70355,575.21069 C 374.9353,572.17622 362.00444,572.79621 351.30929,566.23927 C 348.82443,564.87032 341.09976,560.55209 341.85101,560.81781 C 345.52319,562.67026 353.37546,568.06305 346.71317,563.16486 C 344.12699,561.1237 341.5408,559.08254 338.95462,557.04138 z"
   id="path6751" /><path
   style="fill:#258524;fill-opacity:1;stroke:none;stroke-width:4.5999999;stroke-miterlimit:4;stroke-dasharray:none;stroke-opacity:1"
   d="M 345.74164,562.76379 C 347.39104,569.4694 346.29516,577.09707 341.24747,582.14352 C 338.28628,585.30202 335.28941,592.87768 330.9169,587.76021 C 327.64433,585.8946 324.15038,584.07097 329.3295,581.2925 C 333.64724,576.0304 339.01013,570.32606 337.94367,562.92 C 336.502,558.07394 337.17836,557.76471 341.05527,560.29636 C 342.61739,561.11884 344.17952,561.94132 345.74164,562.76379 z"
   id="path6753" /><path
   style="fill:#258524;fill-opacity:1;stroke:none;stroke-width:4.5999999;stroke-miterlimit:4;stroke-dasharray:none;stroke-opacity:1"
   d="M 351.17172,568.69922 C 346.77021,566.53571 339.58508,562.53011 338.89752,558.29322 C 342.79629,554.05075 344.92597,563.54957 349.13129,564.18204 C 352.29132,566.61836 356.30478,565.50823 351.17172,568.69922 z"
   id="path6765" /><path
   style="opacity:1;fill:#258524;fill-opacity:1;stroke:none;stroke-width:4.5999999;stroke-miterlimit:4;stroke-dasharray:none;stroke-opacity:1"
   d="M 296.21755,510.41467 C 294.79344,506.71569 295.26356,502.11745 295.12123,497.96932 C 295.16164,486.32963 295.1772,474.68982 295.18078,463.05009 C 292.93087,461.79127 290.68095,460.53244 288.43103,459.27362 C 288.48099,473.30885 288.37092,487.35029 288.55842,501.3819 C 288.74093,503.64692 288.48428,507.36078 290.39723,507.52312 C 292.33734,508.48697 294.27744,509.45082 296.21755,510.41467 z"
   id="path6809" /><path
   style="fill:#258524;fill-opacity:1;stroke:none;stroke-width:4.5999999;stroke-miterlimit:4;stroke-dasharray:none;stroke-opacity:1"
   d="M 293.54919,450.45547 C 290.92317,454.78486 288.67012,459.3841 286.91841,464.12381 C 288.61879,461.03233 289.96446,457.74581 291.4174,454.52865 C 287.28718,462.23303 280.68269,468.13127 273.84283,473.38787 C 272.08612,475.19904 269.51731,476.60192 268.92972,479.2118 C 267.73352,482.612 266.53732,486.01219 265.34113,489.41238 C 270.30619,483.69082 276.86766,479.6692 281.90618,474.01055 C 285.66431,470.06426 288.32321,465.28399 290.66195,460.40088 C 291.55986,458.61955 293.59267,454.64421 293.68065,454.2418 C 292.13124,457.30001 290.63774,460.38614 289.13527,463.46758 C 290.51192,460.67672 291.14396,457.5454 292.20949,454.61233 C 292.65606,453.22671 293.10263,451.84109 293.54919,450.45547 z"
   id="path6819" /><path
   style="fill:#258524;fill-opacity:1;stroke:none;stroke-width:4.5999999;stroke-miterlimit:4;stroke-dasharray:none;stroke-opacity:1"
   d="M 289.50562,458.96127 C 291.67573,464.89574 295.77023,470.73093 302.07739,472.6756 C 305.54452,474.13454 309.46985,475.91632 312.93576,476.46482 C 314.15463,473.58128 315.3735,470.69773 316.59238,467.81418 C 311.33953,466.51431 306.30793,464.38766 301.50211,461.9431 C 297.83008,459.22169 295.0261,455.14458 294.04028,450.66367 C 292.52873,453.42954 291.01717,456.19541 289.50562,458.96127 z"
   id="path6821" />

<path
   style="fill:#258524;fill-opacity:1;stroke:none;stroke-width:4.5999999;stroke-miterlimit:4;stroke-dasharray:none;stroke-opacity:1"
   d="M 250.25978,563.4697 C 245.27278,570.46206 236.28228,573.18896 230.66603,579.5947 C 220.93296,590.06092 211.34383,600.46478 200.15677,609.46424 C 186.19987,621.81063 170.42334,632.1685 153.19728,639.2197 C 151.68608,640.41849 144.80386,642.28896 148.94747,643.81261 C 152.59076,646.16119 156.01919,648.85956 159.04103,644.4072 C 169.23333,638.05189 180.68379,633.96887 190.13444,626.20222 C 207.73885,613.74391 224.219,599.98124 238.47853,583.93845 C 244.11834,577.82951 251.48627,573.98528 258.04103,569.1572 C 261.07548,566.54788 254.8834,566.77638 253.78216,565.16821 C 252.62552,564.6235 251.36301,563.86334 250.25978,563.4697 z"
   id="path3265" /><path
   style="fill:#258524;fill-opacity:1;stroke:none;stroke-width:4.5999999;stroke-miterlimit:4;stroke-dasharray:none;stroke-opacity:1"
   d="M 261.2757,556.9874 C 256.64489,558.94593 249.10647,563.03722 247.1718,564.76575 C 250.0921,563.12701 260.94354,557.26922 252.42732,561.14571 C 242.5267,565.55224 231.18955,564.82619 220.88584,567.51614 C 217.22037,570.063 213.5549,572.60986 209.88942,575.15671 C 222.55413,572.12224 236.47002,572.74223 247.97989,566.18529 C 250.65404,564.81634 258.96715,560.49811 258.15867,560.76383 C 254.20676,562.61628 245.75633,568.00907 252.92613,563.11088 C 255.70932,561.06972 258.49251,559.02856 261.2757,556.9874 z"
   id="path3267" /><path
   style="fill:#258524;fill-opacity:1;stroke:none;stroke-width:4.5999999;stroke-miterlimit:4;stroke-dasharray:none;stroke-opacity:1"
   d="M 253.97167,562.70981 C 252.19662,569.41542 253.37598,577.04309 258.80819,582.08954 C 261.99495,585.24804 265.22011,592.8237 269.92571,587.70623 C 273.44757,585.84062 277.20768,584.01699 271.63403,581.23852 C 266.98738,575.97642 261.21596,570.27208 262.36366,562.86602 C 263.91515,558.01996 263.18727,557.71073 259.01503,560.24238 C 257.33391,561.06486 255.65278,561.88734 253.97167,562.70981 z"
   id="path3269" /><path
   style="fill:#258524;fill-opacity:1;stroke:none;stroke-width:4.5999999;stroke-miterlimit:4;stroke-dasharray:none;stroke-opacity:1"
   d="M 248.12794,568.64524 C 252.86474,566.48173 260.59721,562.47613 261.33715,558.23924 C 257.14138,553.99677 254.84947,563.49559 250.32381,564.12806 C 246.92306,566.56438 242.60386,565.45425 248.12794,568.64524 z"
   id="path3271" /><path
   style="fill:none;fill-rule:evenodd;stroke:#979797;stroke-width:0.75387901px;stroke-linecap:butt;stroke-linejoin:miter;stroke-opacity:1"
   d="M 199.34892,689.07995 C 199.34892,685.31129 199.34892,676.80525 199.34892,670.91364 C 199.34892,666.7214 199.34892,662.52918 199.34892,658.33695 C 199.34892,654.55789 199.06559,651.83065 198.48506,649.95251"
   id="path6905" /><path
   style="fill:none;fill-rule:evenodd;stroke:#979797;stroke-width:0.75387901px;stroke-linecap:butt;stroke-linejoin:miter;stroke-opacity:1"
   d="M 181.77815,689.33282 C 181.77815,685.56416 181.77815,677.05812 181.77815,671.16651 C 181.77815,666.97427 181.77815,662.78205 181.77815,658.58982 C 181.77815,654.81076 181.49482,652.08352 180.91429,650.20538"
   id="path3286" /><path
   style="fill:none;fill-rule:evenodd;stroke:#979797;stroke-width:0.75387901px;stroke-linecap:butt;stroke-linejoin:miter;stroke-opacity:1"
   d="M 164.6658,689.15269 C 164.6658,685.38403 164.6658,676.87799 164.6658,670.98638 C 164.6658,666.79414 164.6658,662.60192 164.6658,658.40969 C 164.6658,654.63063 164.38247,651.90339 163.80194,650.02525"
   id="path3288" /><path
   style="fill:none;fill-rule:evenodd;stroke:#979797;stroke-width:0.75387901px;stroke-linecap:butt;stroke-linejoin:miter;stroke-opacity:1"
   d="M 148.81436,688.97256 C 148.81436,685.2039 148.81436,676.69786 148.81436,670.80625 C 148.81436,666.61401 148.81436,662.42179 148.81436,658.22956 C 148.81436,654.4505 148.53103,651.72326 147.9505,649.84512"
   id="path3290" /><path
   style="fill:none;fill-rule:evenodd;stroke:#979797;stroke-width:0.75387901px;stroke-linecap:butt;stroke-linejoin:miter;stroke-opacity:1"
   d="M 217.80414,689.15269 C 217.80414,685.38403 217.80414,676.87799 217.80414,670.98638 C 217.80414,666.79414 217.80414,662.60192 217.80414,658.40969 C 217.80414,654.63063 217.52081,651.90339 216.94028,650.02525"
   id="path3292" /><path
   style="fill:none;fill-rule:evenodd;stroke:#979797;stroke-width:0.75387901px;stroke-linecap:butt;stroke-linejoin:miter;stroke-opacity:1"
   d="M 131.88214,688.97256 C 131.88214,685.2039 131.88214,676.69786 131.88214,670.80625 C 131.88214,666.61401 131.88214,662.42179 131.88214,658.22956 C 131.88214,654.4505 131.59881,651.72326 131.01828,649.84512"
   id="path3298" /><path
   style="fill:none;fill-rule:evenodd;stroke:#979797;stroke-width:0.75387901px;stroke-linecap:butt;stroke-linejoin:miter;stroke-opacity:1"
   d="M 116.21083,688.97256 C 116.21083,685.2039 116.21083,676.69786 116.21083,670.80625 C 116.21083,666.61401 116.21083,662.42179 116.21083,658.22956 C 116.21083,654.4505 115.9275,651.72326 115.34697,649.84512"
   id="path3300" /><path
   style="fill:none;fill-rule:evenodd;stroke:#979797;stroke-width:0.75387901px;stroke-linecap:butt;stroke-linejoin:miter;stroke-opacity:1"
   d="M 99.45874,689.15269 C 99.45874,685.38403 99.45874,676.87799 99.45874,670.98638 C 99.45874,666.79414 99.45874,662.60192 99.45874,658.40969 C 99.45874,654.63063 99.17541,651.90339 98.59488,650.02525"
   id="path3302" /><rect
   style="fill:none;fill-opacity:1;stroke:#000000;stroke-width:2.88215446;stroke-miterlimit:4;stroke-dasharray:none;stroke-opacity:1"
   id="rect6889"
   width="177.28006"
   height="42.267216"
   x="83.152367"
   y="-690.6048"
   transform="scale(1,-1)"
   ry="7.8922706"
   rx="0" /><text
   xml:space="preserve"
   style="font-size:22.55599213px;font-style:normal;font-variant:normal;font-weight:normal;font-stretch:normal;text-align:start;line-height:125%;writing-mode:lr-tb;text-anchor:start;fill:#000000;fill-opacity:1;stroke:none;stroke-width:1px;stroke-linecap:butt;stroke-linejoin:miter;stroke-opacity:1;font-family:DejaVu Sans;-inkscape-font-specification:DejaVu Sans"
   x="98.587761"
   y="-670.44812"
   id="text6891"
   sodipodi:linespacing="125%"
   transform="scale(1.0100632,-0.9900371)"><tspan
     sodipodi:role="line"
     id="tspan6893"
     x="98.587761"
     y="-670.44812">shift register</tspan></text>

<path
   style="fill:#258524;fill-opacity:1;stroke:none;stroke-width:4.5999999;stroke-miterlimit:4;stroke-dasharray:none;stroke-opacity:1"
   id="path6557"
   d="M 550.00006,685.89056 C 550.66843,688.9431 552.10173,691.79016 553.5987,694.5688 C 556.66598,699.82123 558.81696,705.42778 560.63836,711.11943 C 562.75723,717.74864 563.5878,724.60714 564.0529,731.47076 C 564.26371,735.70642 564.55997,739.99975 563.14427,744.08908 C 561.71469,746.90104 558.62547,747.17708 555.58051,747.45896 C 551.55483,747.69253 547.51626,747.631 543.48529,747.57608 C 540.5666,747.50398 537.65811,747.69247 534.79977,747.08645 C 532.02484,746.40765 529.2292,745.8702 526.38489,745.50003 C 523.42942,745.18529 520.45114,745.13666 517.47911,745.08968 C 515.84169,745.07189 516.66026,745.07633 515.02339,745.07633 L 525.39853,751.91981 C 527.02488,751.92869 526.21611,751.92495 527.82482,751.93106 C 530.74875,751.96464 533.68061,752.04109 536.5772,752.43613 C 539.41869,752.85781 542.18813,753.54137 545.00325,754.08001 C 547.89232,754.46447 550.81026,754.30728 553.72281,754.33462 C 557.78271,754.33117 561.85032,754.38582 565.9012,754.09651 C 569.6626,753.64675 572.58315,753.02209 574.25767,749.61137 C 574.73014,748.18828 574.98168,747.65828 575.16025,746.14085 C 575.5393,742.92 575.12565,739.65784 574.98279,736.43996 C 574.42632,729.51169 573.55577,722.59366 571.61308,715.85629 C 569.9334,710.16256 567.87084,704.56634 564.98875,699.27023 C 563.66044,696.64458 562.08307,693.9441 561.71333,691.04382 L 550.00006,685.89056 z" /><path
   style="fill:#258524;fill-opacity:1;stroke:none;stroke-width:4.5999999;stroke-miterlimit:4;stroke-dasharray:none;stroke-opacity:1"
   id="path6559"
   d="M 514.22891,746.67448 C 521.20858,751.42493 538.3111,758.41708 518.40295,748.97109 C 517.64827,748.61301 519.80163,749.85372 520.48123,750.3194 C 522.30541,751.56937 523.19121,752.28854 524.92787,753.62452 C 528.99368,757.09805 532.32273,761.19803 535.46405,765.36694 C 536.99361,767.51924 538.81954,769.47325 540.70376,771.37243 L 552.47071,775.84466 C 550.50895,773.964 548.59408,772.03689 546.95314,769.91204 C 543.74917,765.67782 540.30122,761.57121 536.40143,757.84243 C 534.49992,756.35096 532.2569,754.31889 530.13121,753.12832 C 518.5235,746.62698 510.27256,742.69428 527.12697,751.41131 C 527.40041,751.55274 526.61191,751.08294 526.35439,750.91875 L 514.22891,746.67448 z" /><path
   style="fill:#258524;fill-opacity:1;stroke:none;stroke-width:4.5999999;stroke-miterlimit:4;stroke-dasharray:none;stroke-opacity:1"
   id="path6561"
   d="M 526.77278,750.20732 C 529.3941,749.40183 531.71004,748.0991 533.90521,746.69349 C 535.92696,745.18523 537.80963,743.61525 539.03142,741.58774 C 539.95516,740.03111 540.58716,738.37787 541.35082,736.76773 C 542.16778,735.03326 542.90751,733.28745 543.58105,731.51182 C 544.15705,730.12928 544.44404,728.67994 545.03447,727.30195 L 536.29798,723.34961 C 535.83605,724.76954 535.46196,726.20368 534.98104,727.61891 C 534.32037,729.37552 533.57449,731.09152 532.74405,732.79872 C 531.95833,734.38398 531.42116,736.04523 530.49834,737.58641 C 529.39346,739.51397 527.59454,740.98998 525.70157,742.41558 C 523.55801,743.73555 521.28304,745.08212 518.59076,745.46728 L 526.77278,750.20732 z" /><path
   style="fill:none;fill-rule:evenodd;stroke:#979797;stroke-width:0.76030004px;stroke-linecap:butt;stroke-linejoin:miter;stroke-opacity:1"
   d="M 492.42547,690.01539 C 492.42547,686.24673 492.42547,677.74069 492.42547,671.84908 C 492.42547,667.65684 492.42547,663.46462 492.42547,659.27239 C 492.42547,655.49333 492.13729,652.76609 491.54683,650.88795"
   id="path3322" /><path
   style="fill:none;fill-rule:evenodd;stroke:#979797;stroke-width:0.76030004px;stroke-linecap:butt;stroke-linejoin:miter;stroke-opacity:1"
   d="M 474.55412,690.26826 C 474.55412,686.4996 474.55412,677.99356 474.55412,672.10195 C 474.55412,667.90971 474.55412,663.71749 474.55412,659.52526 C 474.55412,655.7462 474.26594,653.01896 473.67548,651.14082"
   id="path3324" /><path
   style="fill:none;fill-rule:evenodd;stroke:#979797;stroke-width:0.76030004px;stroke-linecap:butt;stroke-linejoin:miter;stroke-opacity:1"
   d="M 457.14902,690.08813 C 457.14902,686.31947 457.14902,677.81343 457.14902,671.92182 C 457.14902,667.72958 457.14902,663.53736 457.14902,659.34513 C 457.14902,655.56607 456.86084,652.83883 456.27038,650.96069"
   id="path3326" /><path
   style="fill:none;fill-rule:evenodd;stroke:#979797;stroke-width:0.76030004px;stroke-linecap:butt;stroke-linejoin:miter;stroke-opacity:1"
   d="M 441.02641,689.908 C 441.02641,686.13934 441.02641,677.6333 441.02641,671.74169 C 441.02641,667.54945 441.02641,663.35723 441.02641,659.165 C 441.02641,655.38594 440.73823,652.6587 440.14777,650.78056"
   id="path3328" /><path
   style="fill:none;fill-rule:evenodd;stroke:#979797;stroke-width:0.76030004px;stroke-linecap:butt;stroke-linejoin:miter;stroke-opacity:1"
   d="M 511.19641,690.08813 C 511.19641,686.31947 511.19641,677.81343 511.19641,671.92182 C 511.19641,667.72958 511.19641,663.53736 511.19641,659.34513 C 511.19641,655.56607 510.90823,652.83883 510.31777,650.96069"
   id="path3330" /><path
   style="fill:none;fill-rule:evenodd;stroke:#979797;stroke-width:0.76030004px;stroke-linecap:butt;stroke-linejoin:miter;stroke-opacity:1"
   d="M 540.49605,689.98162 C 540.49605,686.21296 540.49605,677.70692 540.49605,671.81531 C 540.49605,667.62307 540.49605,663.43085 540.49605,659.23862 C 540.49605,655.45956 540.20787,652.73232 539.61741,650.85418"
   id="path3334" /><path
   style="fill:none;fill-rule:evenodd;stroke:#979797;stroke-width:0.76030004px;stroke-linecap:butt;stroke-linejoin:miter;stroke-opacity:1"
   d="M 423.80452,689.908 C 423.80452,686.13934 423.80452,677.6333 423.80452,671.74169 C 423.80452,667.54945 423.80452,663.35723 423.80452,659.165 C 423.80452,655.38594 423.51635,652.6587 422.92589,650.78056"
   id="path3336" /><path
   style="fill:none;fill-rule:evenodd;stroke:#979797;stroke-width:0.76030004px;stroke-linecap:butt;stroke-linejoin:miter;stroke-opacity:1"
   d="M 407.86512,689.908 C 407.86512,686.13934 407.86512,677.6333 407.86512,671.74169 C 407.86512,667.54945 407.86512,663.35723 407.86512,659.165 C 407.86512,655.38594 407.57694,652.6587 406.98648,650.78056"
   id="path3338" /><path
   style="fill:none;fill-rule:evenodd;stroke:#979797;stroke-width:0.76030004px;stroke-linecap:butt;stroke-linejoin:miter;stroke-opacity:1"
   d="M 390.82645,690.08813 C 390.82645,686.31947 390.82645,677.81343 390.82645,671.92182 C 390.82645,667.72958 390.82645,663.53736 390.82645,659.34513 C 390.82645,655.56607 390.53827,652.83883 389.94781,650.96069"
   id="path3340" /><rect
   style="fill:none;fill-opacity:1;stroke:#000000;stroke-width:2.90670276;stroke-miterlimit:4;stroke-dasharray:none;stroke-opacity:1"
   id="rect3344"
   width="180.31282"
   height="42.267216"
   x="374.24112"
   y="-691.54022"
   transform="scale(1,-1)"
   ry="7.8922706"
   rx="0" /><text
   xml:space="preserve"
   style="font-size:22.74810982px;font-style:normal;font-variant:normal;font-weight:normal;font-stretch:normal;text-align:start;line-height:125%;writing-mode:lr-tb;text-anchor:start;fill:#000000;fill-opacity:1;stroke:none;stroke-width:1px;stroke-linecap:butt;stroke-linejoin:miter;stroke-opacity:1;font-family:DejaVu Sans;-inkscape-font-specification:DejaVu Sans"
   x="383.78583"
   y="-677.11145"
   id="text3346"
   sodipodi:linespacing="125%"
   transform="scale(1.0186662,-0.9816758)"><tspan
     sodipodi:role="line"
     id="tspan3348"
     x="383.78583"
     y="-677.11145">shift register</tspan></text>
<text
   xml:space="preserve"
   style="font-size:28.44057846px;font-style:normal;font-variant:normal;font-weight:normal;font-stretch:normal;text-align:start;line-height:125%;writing-mode:lr-tb;text-anchor:start;fill:#000000;fill-opacity:1;stroke:none;stroke-width:1px;stroke-linecap:butt;stroke-linejoin:miter;stroke-opacity:1;font-family:DejaVu Sans;-inkscape-font-specification:DejaVu Sans"
   x="217.40273"
   y="-433.03833"
   id="text6827"
   sodipodi:linespacing="125%"
   transform="scale(1.0077406,-0.9923189)"><tspan
     sodipodi:role="line"
     id="tspan6829"
     x="217.40273"
     y="-433.03833">keystream</tspan></text>
<path
   style="fill:none;fill-rule:evenodd;stroke:#979797;stroke-width:0.75387901px;stroke-linecap:butt;stroke-linejoin:miter;stroke-opacity:1"
   d="M 233.8582,689.13807 C 233.8582,685.36941 233.8582,676.86337 233.8582,670.97176 C 233.8582,666.77952 233.8582,662.5873 233.8582,658.39507 C 233.8582,654.61601 233.57487,651.88877 232.99434,650.01063"
   id="path2466" /><path
   style="fill:none;fill-rule:evenodd;stroke:#979797;stroke-width:0.75387901px;stroke-linecap:butt;stroke-linejoin:miter;stroke-opacity:1"
   d="M 246.91354,689.10233 C 246.91354,685.33367 246.91354,676.82763 246.91354,670.93602 C 246.91354,666.74378 246.91354,662.55156 246.91354,658.35933 C 246.91354,654.58027 246.63021,651.85303 246.04968,649.97489"
   id="path2468" /><path
   style="fill:none;fill-rule:evenodd;stroke:#979797;stroke-width:0.76030004px;stroke-linecap:butt;stroke-linejoin:miter;stroke-opacity:1"
   d="M 527.06182,689.93425 C 527.06182,686.16559 527.06182,677.65955 527.06182,671.76794 C 527.06182,667.5757 527.06182,663.38348 527.06182,659.19125 C 527.06182,655.41219 526.77364,652.68495 526.18318,650.80681"
   id="path2483" /></g></svg>